<?xml version="1.0" encoding="UTF-8" standalone="no"?>
<!-- Created with Inkscape (http://www.inkscape.org/) -->

<svg
   xmlns:dc="http://purl.org/dc/elements/1.1/"
   xmlns:cc="http://creativecommons.org/ns#"
   xmlns:rdf="http://www.w3.org/1999/02/22-rdf-syntax-ns#"
   xmlns:svg="http://www.w3.org/2000/svg"
   xmlns="http://www.w3.org/2000/svg"
   xmlns:sodipodi="http://sodipodi.sourceforge.net/DTD/sodipodi-0.dtd"
   xmlns:inkscape="http://www.inkscape.org/namespaces/inkscape"
   width="24mm"
   height="126mm"
   viewBox="0 0 24 126"
   version="1.1"
   id="svg1321"
   inkscape:version="0.92.2 (5c3e80d, 2017-08-06)"
   sodipodi:docname="title_pc.svg">
  <defs
     id="defs1315" />
  <sodipodi:namedview
     id="base"
     pagecolor="#ffffff"
     bordercolor="#666666"
     borderopacity="1.0"
     inkscape:pageopacity="0.0"
     inkscape:pageshadow="2"
     inkscape:zoom="1.979899"
     inkscape:cx="93.690057"
     inkscape:cy="69.992949"
     inkscape:document-units="mm"
     inkscape:current-layer="layer1"
     showgrid="false"
     fit-margin-top="0"
     fit-margin-left="0"
     fit-margin-right="0"
     fit-margin-bottom="0"
     inkscape:window-width="1366"
     inkscape:window-height="705"
     inkscape:window-x="-8"
     inkscape:window-y="-8"
     inkscape:window-maximized="1" />
  <metadata
     id="metadata1318">
    <rdf:RDF>
      <cc:Work
         rdf:about="">
        <dc:format>image/svg+xml</dc:format>
        <dc:type
           rdf:resource="http://purl.org/dc/dcmitype/StillImage" />
        <dc:title></dc:title>
      </cc:Work>
    </rdf:RDF>
  </metadata>
  <g
     inkscape:label="レイヤー 1"
     inkscape:groupmode="layer"
     id="layer1"
     transform="translate(-72.714944,-80.516692)">
    <g
       transform="translate(-3.562634,4.5089179)"
       id="layer1-7"
       inkscape:label="レイヤー 1">
      <g
         transform="translate(-10.205358,-0.37797619)"
         id="g1174">
        <path
           inkscape:connector-curvature="0"
           id="path1190"
           d="M 86.556549,139.00596 V 76.82888 h 11.90625 11.906251 v 62.17708 62.17708 H 98.462799 86.556549 Z"
           style="fill:#fefefe;stroke-width:0.26458332" />
        <path
           inkscape:connector-curvature="0"
           id="path1188"
           d="m 86.821132,198.29467 v -2.88836 l 2.315105,-0.77134 2.315104,-0.77134 0.07352,-3.60187 0.07352,-3.60186 -2.388622,-0.71685 -2.388623,-0.71686 v -3.03009 c 0,-2.31396 0.07816,-3.00072 0.33073,-2.90582 0.181901,0.0683 5.480182,1.8111 11.773958,3.8728 l 11.443226,3.74854 v 3.27722 3.27721 l -11.575551,3.85849 c -6.366555,2.12218 -11.664837,3.8585 -11.773959,3.8585 -0.109122,0 -0.198404,-1.29977 -0.198404,-2.88837 z m 13.331748,-7.24233 2.59002,-0.86833 -3.066093,-0.94847 -3.066091,-0.94846 v 1.96789 c 0,1.77434 0.04682,1.95304 0.476078,1.81679 0.261842,-0.0831 1.641583,-0.54184 3.066086,-1.01942 z M 86.821132,175.67192 v -3.02153 l 6.019271,-3.32463 6.019271,-3.32463 -6.019271,-0.004 -6.019271,-0.004 v -3.175 -3.175 h 11.773959 11.773959 l -7.2e-4,3.10885 -7.1e-4,3.10886 -5.99173,3.30729 -5.991731,3.30729 5.992441,0.0711 5.99245,0.0711 v 3.03774 3.03774 H 98.595091 86.821132 Z m 0,-19.446 v -2.88836 l 2.315105,-0.7717 c 2.268443,-0.75615 2.314807,-0.78859 2.300404,-1.60955 -0.0081,-0.46082 -0.03785,-2.05961 -0.06614,-3.55286 l -0.05145,-2.71501 -2.315104,-0.79072 -2.315104,-0.79072 v -2.91042 c 0,-1.78967 0.101885,-2.89552 0.264583,-2.87173 0.145521,0.0213 5.417547,1.7241 11.715615,3.78407 l 11.451029,3.74539 -0.0739,3.324 -0.0739,3.32401 -11.223458,3.80599 c -6.172905,2.09329 -11.381889,3.80598 -11.575521,3.80598 -0.27152,0 -0.352057,-0.66074 -0.352057,-2.88837 z m 12.7,-7.01549 c 1.236928,-0.39658 2.427548,-0.78606 2.645838,-0.86551 0.32111,-0.11688 -4.660368,-1.90704 -5.357817,-1.9254 -0.10914,-0.003 -0.198437,0.84095 -0.198437,1.87516 0,1.39288 0.08574,1.84882 0.330729,1.7586 0.181901,-0.067 1.34276,-0.44627 2.579687,-0.84285 z M 86.754986,136.74746 c -0.10914,-0.11602 -0.19661,-1.53055 -0.194376,-3.14341 l 0.0041,-2.93246 6.01521,-3.3073 6.01521,-3.30729 -6.019271,-0.0711 -6.019271,-0.0711 v -3.01064 -3.01064 l 3.505729,-0.17549 c 1.928151,-0.0965 7.256198,-0.13848 11.840103,-0.0933 l 8.33438,0.0822 0.0684,3.04271 0.0684,3.04271 -6.02156,3.30729 -6.021554,3.30729 6.019274,0.0711 6.01927,0.0711 v 3.03774 3.03774 l -4.82865,5.3e-4 c -2.65575,2.6e-4 -7.924269,0.0754 -11.70781,0.16684 -3.783542,0.0915 -6.968464,0.0714 -7.077605,-0.0446 z m -0.198437,-22.43027 v -2.99294 l 2.388378,-0.76327 2.388377,-0.76328 -0.07327,-3.57431 -0.07327,-3.5743 -2.248958,-0.715 -2.248958,-0.71499 -0.07481,-2.934692 c -0.05742,-2.252441 0.0041,-2.933383 0.264584,-2.929047 0.186667,0.0031 5.459082,1.699747 11.716478,3.770312 l 11.37708,3.764667 v 3.30729 3.30729 l -11.509372,3.88421 c -6.330156,2.13632 -11.598672,3.89249 -11.707813,3.90261 -0.10914,0.0101 -0.198437,-1.32843 -0.198437,-2.97455 z m 13.163021,-7.22132 c 1.34607,-0.41505 2.4456,-0.81671 2.44342,-0.89258 -0.003,-0.11268 -3.494495,-1.28141 -5.353837,-1.79225 -0.410022,-0.11265 -0.463021,0.0918 -0.463021,1.78659 0,1.69597 0.0527,1.89895 0.463021,1.78334 0.254662,-0.0717 1.564349,-0.47005 2.910417,-0.8851 z M 90.955907,94.961259 c -1.493802,-0.532477 -2.849131,-1.737047 -3.604423,-3.203487 -0.649455,-1.260953 -0.664209,-1.422318 -0.741317,-8.107726 l -0.07868,-6.821166 h 11.803522 11.803531 l -0.0832,6.416145 -0.0832,6.416146 -0.71449,1.215368 c -1.88286,3.202806 -5.90209,4.303466 -9.12892,2.499952 l -1.229095,-0.686951 -0.813743,0.78595 c -1.779511,1.718733 -4.743646,2.336407 -7.13001,1.485769 z m 4.521788,-5.43238 c 0.0336,0 0.24275,-0.351275 0.464768,-0.78061 0.286998,-0.554995 0.403669,-1.587358 0.403669,-3.571875 V 82.38513 h -2.38125 -2.38125 v 2.92781 c 0,1.610296 0.128438,3.167798 0.285416,3.461115 0.422118,0.788735 1.752834,1.269542 2.734484,0.988008 0.447186,-0.128251 0.840559,-0.233184 0.874163,-0.233184 z m 8.785635,-1.214144 c 0.80818,-0.680039 0.81405,-0.703889 0.81405,-3.307292 V 82.38513 h -2.38125 -2.38125 l 0.009,2.315104 c 0.0101,2.49861 0.30219,3.35356 1.34266,3.930251 0.95719,0.530527 1.69769,0.440475 2.59641,-0.31575 z"
           style="fill:#d0d0d0;stroke-width:0.26458332" />
        <path
           inkscape:connector-curvature="0"
           id="path1186"
           d="m 86.821132,198.29467 v -2.88836 l 2.315105,-0.77134 2.315104,-0.77134 0.07358,-3.61111 0.07358,-3.61111 -2.388682,-0.72717 -2.388683,-0.72717 v -2.95758 -2.95758 l 2.844271,0.90285 c 1.564349,0.49657 6.769891,2.19028 11.567863,3.7638 10.01572,3.28469 9.06759,2.57302 9.10941,6.83755 l 0.0264,2.68994 -11.575551,3.85849 c -6.366555,2.12218 -11.664837,3.8585 -11.773959,3.8585 -0.109122,0 -0.198404,-1.29977 -0.198404,-2.88837 z m 13.035621,-7.07162 2.971667,-0.96416 -1.85208,-0.63053 c -1.018645,-0.34679 -2.41763,-0.79947 -3.108854,-1.00595 l -1.25677,-0.37543 v 1.97011 c 0,1.08357 0.06173,1.97012 0.137183,1.97012 0.07545,0 1.474435,-0.43387 3.108854,-0.96416 z M 86.821132,175.69532 v -2.99814 l 5.960969,-3.28572 5.96097,-3.28571 -5.969323,-0.0711 -5.969323,-0.0711 0.0745,-3.10387 0.0745,-3.10386 11.707812,-0.0689 11.707813,-0.0689 -0.008,3.1116 -0.008,3.11161 -6.14376,3.36848 -6.143755,3.36848 6.151565,0.005 6.15156,0.005 v 3.04271 3.04271 H 98.595091 86.821132 Z m 0,-19.4694 v -2.88836 l 2.315105,-0.77134 2.315104,-0.77134 0.07333,-3.57326 0.07333,-3.57325 -2.388436,-0.7168 -2.388436,-0.71679 v -2.89816 c 0,-1.59399 0.09879,-2.89816 0.219531,-2.89816 0.120742,0 4.793945,1.49388 10.384896,3.31973 5.590954,1.82585 10.734394,3.50345 11.429864,3.72799 l 1.2645,0.40827 -0.0739,3.32758 -0.0739,3.32758 -11.374764,3.79234 c -6.25612,2.08579 -11.465104,3.79234 -11.57552,3.79234 -0.110416,0 -0.200757,-1.29976 -0.200757,-2.88837 z m 12.630691,-6.92758 c 1.420567,-0.45106 2.675967,-0.90732 2.789777,-1.01391 0.11381,-0.10658 -0.24337,-0.33264 -0.79375,-0.50233 -0.55037,-0.16971 -1.92341,-0.5972 -3.051197,-0.94999 l -2.050521,-0.64143 v 1.96389 c 0,1.11702 0.112729,1.96389 0.26142,1.96389 0.143781,0 1.423703,-0.36905 2.844271,-0.82012 z m -12.72189,-15.47845 c -0.09439,-1.54265 -0.112709,-2.90014 -0.04071,-3.01663 0.072,-0.11649 2.805187,-1.68205 6.073759,-3.47903 l 5.942859,-3.26723 -6.008498,-0.13229 -6.008498,-0.13229 -0.07444,-2.93645 -0.07444,-2.93646 11.674593,-0.19186 c 6.421032,-0.10552 11.710462,-0.15334 11.754292,-0.10626 0.0438,0.0471 0.12205,1.45203 0.1738,3.12209 l 0.0941,3.03648 -6.00671,3.31352 -6.006715,3.31352 6.006715,0.13229 6.00671,0.1323 0.0748,2.97656 0.0748,2.97656 H 98.643964 86.901548 Z m -0.173384,-19.64384 v -2.86949 l 2.38125,-0.71464 2.38125,-0.71464 v -3.64475 -3.64474 l -2.38125,-0.71281 -2.38125,-0.71282 v -2.906223 c 0,-1.598424 0.0893,-2.906274 0.198437,-2.906335 0.109141,-6.1e-5 5.347891,1.68895 11.641667,3.753358 l 11.443227,3.75347 v 3.32655 3.32655 l -11.314317,3.76801 c -6.222875,2.0724 -11.461625,3.768 -11.641666,3.768 -0.239953,0 -0.327348,-0.76609 -0.327348,-2.86949 z m 13.017149,-6.97635 c 1.426292,-0.46751 2.593272,-0.92356 2.593272,-1.01345 0,-0.14103 -5.228799,-1.8407 -5.662639,-1.8407 -0.08701,0 -0.158199,0.83343 -0.158199,1.85208 0,1.26298 0.100878,1.85208 0.317149,1.85208 0.174432,0 1.484119,-0.3825 2.910417,-0.85001 z M 91.186757,95.046604 c -0.854319,-0.315985 -2.430431,-1.405377 -2.99104,-2.067376 -0.189864,-0.224202 -0.635186,-1.002953 -0.989603,-1.730557 -0.629558,-1.292456 -0.644455,-1.473699 -0.64698,-7.871354 l -0.0026,-6.548437 h 11.773958 11.773958 v 5.856282 c 0,3.723415 -0.11333,6.234521 -0.31116,6.894823 -0.3961,1.322076 -2.08087,3.243918 -3.49138,3.982667 -1.63815,0.857977 -4.09911,0.810502 -5.97033,-0.115175 l -1.438494,-0.711611 -0.880181,0.772809 c -0.484099,0.425045 -1.264577,0.971588 -1.734395,1.21454 -1.039434,0.537512 -4.003816,0.725786 -5.091768,0.323389 z m 3.860965,-5.398106 c 1.085995,-0.56159 1.29841,-1.298176 1.29841,-4.502468 v -2.7609 h -2.38125 -2.38125 v 3.128879 c 0,2.907897 0.04205,3.167131 0.595313,3.67049 1.042798,0.94873 1.719696,1.058212 2.868777,0.463999 z m 8.952408,-1.035875 c 0.99133,-0.512638 1.07725,-0.810593 1.07725,-3.735591 V 82.38513 h -2.38125 -2.38125 l 0.004,2.315104 c 0.004,2.53606 0.30849,3.445692 1.32423,3.959635 0.86124,0.435763 1.44574,0.424047 2.35712,-0.04725 z"
           style="fill:#afafaf;stroke-width:0.26458332" />
        <path
           inkscape:connector-curvature="0"
           id="path1184"
           d="m 86.954766,198.55595 c -0.103418,-1.4449 -0.113177,-2.74821 -0.02169,-2.89624 0.09149,-0.14803 1.178403,-0.59874 2.415367,-1.00157 l 2.249025,-0.73243 -0.07306,-3.6907 -0.07306,-3.69071 -2.248959,-0.69187 -2.248958,-0.69187 -0.0751,-2.83668 c -0.0575,-2.17199 0.0045,-2.83657 0.264583,-2.83622 0.186824,2.5e-4 5.399837,1.65812 11.584472,3.68415 l 11.244784,3.68369 0.0739,3.30109 0.0738,3.30109 -2.32281,0.79167 c -4.80645,1.63816 -20.53408,6.93369 -20.592936,6.93369 -0.03373,0 -0.145947,-1.18219 -0.249364,-2.62709 z m 13.069284,-7.37272 2.99888,-1.00397 -2.80405,-0.85442 c -1.542223,-0.46994 -2.98497,-0.92385 -3.206104,-1.00871 -0.337977,-0.1297 -0.40206,0.16651 -0.40206,1.85839 0,1.10698 0.09325,2.01269 0.207225,2.01269 0.113974,0 1.556722,-0.45179 3.206109,-1.00398 z M 86.821132,175.71652 v -2.97694 l 5.627391,-3.10074 c 3.095065,-1.70541 5.863269,-3.28882 6.151563,-3.5187 0.480859,-0.38341 0.02133,-0.41138 -5.561245,-0.33846 l -6.085417,0.0795 -0.07442,-2.93418 -0.07442,-2.93418 5.762957,-0.17403 c 3.169626,-0.0957 8.475409,-0.17432 11.790619,-0.17467 l 6.02767,-6.5e-4 -0.0745,3.10366 -0.0745,3.10365 -6.00621,3.31249 -6.006215,3.31249 6.072355,0.071 6.07236,0.071 v 3.03784 3.03783 H 98.595091 86.821132 Z m 0,-19.46287 V 153.393 l 2.38125,-0.761 2.38125,-0.761 v -3.60462 -3.60463 l -2.38125,-0.761 -2.38125,-0.761 v -2.86064 c 0,-1.57336 0.07601,-2.86065 0.168909,-2.86065 0.0929,0 5.335027,1.69108 11.64917,3.75797 l 11.480259,3.75796 -0.0737,3.29761 -0.0737,3.29761 -11.374761,3.79234 c -6.25612,2.08579 -11.465104,3.79234 -11.57552,3.79234 -0.110416,0 -0.200757,-1.28729 -0.200757,-2.86064 z m 12.699346,-6.94978 c 1.382812,-0.44803 2.692792,-0.87876 2.911072,-0.95719 0.28005,-0.10062 -5.289691,-2.12823 -6.019272,-2.19126 -0.03638,-0.003 -0.06615,0.88726 -0.06615,1.97866 0,1.40902 0.0957,1.98438 0.330075,1.98438 0.181541,0 1.461463,-0.36657 2.844271,-0.81459 z M 86.821132,133.6367 v -2.98801 l 5.964308,-3.29585 5.964308,-3.29584 -6.030454,-0.13229 -6.030453,-0.13229 -0.07476,-2.97119 -0.07476,-2.97118 11.78265,-0.0715 11.782649,-0.0715 -8e-5,3.06098 -7e-5,3.06098 -5.96561,3.28902 -5.965597,3.28902 5.930307,0.071 5.93031,0.071 0.16758,1.22267 c 0.0922,0.67248 0.16759,2.0395 0.16759,3.03783 v 1.81516 H 98.595091 86.821132 Z m -0.207388,-19.4139 0.0751,-2.82275 2.315104,-0.77117 2.315104,-0.77118 v -3.64042 -3.64041 l -2.38125,-0.73046 -2.38125,-0.73046 v -2.913978 c 0,-2.647415 0.04236,-2.90231 0.463021,-2.786434 0.254661,0.07015 5.493411,1.776755 11.641666,3.792459 l 11.178641,3.664913 v 3.31831 3.31831 l -11.314314,3.76801 c -6.222875,2.0724 -11.465653,3.768 -11.650618,3.768 -0.255687,0 -0.318298,-0.67661 -0.261201,-2.82274 z m 15.812306,-8.02517 c -0.003,-0.13558 -5.523472,-1.88511 -5.88148,-1.86386 -0.109141,0.006 -0.198438,0.88887 -0.198438,1.96087 v 1.9491 l 3.041313,-0.95691 c 1.672725,-0.5263 3.040095,-1.01644 3.038605,-1.0892 z M 91.581919,95.102501 C 89.764042,94.549528 88.13353,93.170571 87.181482,91.380963 86.744887,90.560273 86.679466,89.679829 86.606434,83.6419 l -0.08241,-6.81302 h 11.807528 11.807528 l -0.0835,6.283854 c -0.0778,5.860729 -0.12225,6.356332 -0.65961,7.360235 -1.42681,2.665596 -4.44997,4.173658 -7.211,3.597109 -0.79044,-0.165056 -1.84416,-0.570202 -2.341619,-0.900325 L 98.938946,92.569529 97.880045,93.5471 c -1.656328,1.529114 -4.265892,2.173579 -6.298126,1.555401 z m 4.168901,-5.976318 c 0.54277,-0.624674 0.595312,-0.952394 0.595312,-3.713099 V 82.38513 h -2.542097 -2.542097 l 0.09735,3.06678 0.09735,3.066781 0.893566,0.798402 c 0.75389,0.673601 1.042982,0.774629 1.849432,0.646318 0.560956,-0.08925 1.201815,-0.435147 1.551178,-0.837228 z m 8.30802,-0.41235 c 0.84832,-0.454004 1.28313,-1.878449 1.28313,-4.203539 V 82.38513 h -2.51355 -2.51354 v 2.533894 c 0,2.447842 0.0263,2.560159 0.7734,3.307291 0.82638,0.826378 1.98278,1.016162 2.97056,0.487518 z"
           style="fill:#909090;stroke-width:0.26458332" />
        <path
           inkscape:connector-curvature="0"
           id="path1182"
           d="m 87.085716,198.26773 v -2.8727 l 2.255876,-0.73466 2.255877,-0.73466 -0.07306,-3.70201 -0.07306,-3.70202 -2.248959,-0.6843 -2.248958,-0.6843 -0.0751,-2.83293 c -0.05424,-2.04609 0.0118,-2.83294 0.237779,-2.83294 0.172082,0 5.414861,1.6713 11.650618,3.714 l 11.337741,3.714 v 3.27504 3.27504 l -11.509374,3.83757 -11.509375,3.83757 z m 12.922914,-7.05758 3.08438,-0.97707 -2.77813,-0.87933 c -1.527966,-0.48364 -2.986482,-0.94495 -3.241143,-1.02515 -0.413027,-0.13006 -0.463021,0.0704 -0.463021,1.8564 0,1.10122 0.07055,2.00221 0.156773,2.00221 0.08622,0 1.54474,-0.43968 3.241141,-0.97706 z m -13.182595,-15.49325 0.0049,-2.97657 6.253717,-3.43958 6.253717,-3.43958 -6.25862,-0.0709 -6.25862,-0.0709 v -2.90563 -2.90563 l 8.73125,-0.0608 c 4.802191,-0.0335 10.070711,-0.0632 11.707811,-0.0662 l 2.97657,-0.005 v 3.01985 3.01985 l -6.02753,3.33015 -6.027523,3.33015 6.093673,0.071 6.09367,0.071 v 3.03784 3.03783 H 98.595091 86.821132 Z m -0.0049,-19.43495 V 153.393 l 2.38125,-0.761 2.38125,-0.761 v -3.64214 -3.64214 l -2.38125,-0.71463 -2.38125,-0.71464 v -2.8695 c 0,-2.13338 0.08484,-2.86267 0.33073,-2.84292 0.181901,0.0146 5.390885,1.71126 11.57552,3.77032 l 11.244785,3.74373 0.0741,3.21646 0.0741,3.21647 -11.318883,3.76782 c -6.225386,2.0723 -11.467711,3.82255 -11.649612,3.88945 -0.251817,0.0926 -0.33073,-0.56768 -0.33073,-2.76733 z m 12.790937,-6.98847 c 1.477948,-0.45374 2.779258,-0.90895 2.891778,-1.01158 0.11253,-0.10262 -1.04599,-0.56766 -2.574494,-1.03341 -1.528505,-0.46575 -2.960026,-0.91625 -3.18116,-1.00111 -0.337977,-0.12969 -0.402061,0.16651 -0.402061,1.8584 0,1.28035 0.105292,2.01268 0.289374,2.01268 0.159156,0 1.498609,-0.37124 2.976563,-0.82498 z m -12.787654,-15.64533 0.0033,-2.97656 5.644338,-3.11591 c 3.104386,-1.71375 5.871112,-3.28392 6.14828,-3.48926 0.436861,-0.32364 -0.314917,-0.35239 -5.64762,-0.216 l -6.151563,0.15733 v -3.08423 -3.08423 h 11.641667 11.64167 v 2.98302 2.98302 l -5.62815,3.09521 c -3.09547,1.70236 -5.840934,3.25081 -6.101021,3.44099 -0.392869,0.28727 0.559462,0.32799 5.628141,0.24061 l 6.10103,-0.10517 v 3.07387 3.07387 H 98.462799 86.821132 Z m -0.141099,-19.0995 c -0.103765,-1.38404 -0.130238,-2.66868 -0.05883,-2.85477 0.07141,-0.18609 1.156898,-0.67282 2.412198,-1.08162 l 2.282364,-0.74329 v -3.66045 -3.66046 l -2.38125,-0.73046 -2.38125,-0.73046 v -2.897023 c 0,-2.201947 0.07935,-2.869704 0.330729,-2.783169 0.181901,0.06262 5.42356,1.771996 11.64813,3.798619 l 11.3174,3.684773 -0.0726,3.28525 -0.0726,3.28525 -10.980206,3.66205 c -6.039114,2.01413 -11.177127,3.72508 -11.417805,3.80211 -0.377926,0.12097 -0.463323,-0.20308 -0.626261,-2.37635 z m 15.748231,-8.34225 c 0,-0.0862 -1.36922,-0.58315 -3.042706,-1.10426 l -3.042709,-0.94746 v 2.04549 2.0455 l 3.042709,-0.94123 c 1.673486,-0.51768 3.042706,-1.01179 3.042706,-1.09804 z M 91.581919,95.118248 c -2.245526,-0.736377 -3.989291,-2.461141 -4.613563,-4.563292 -0.321268,-1.081828 -0.411807,-2.743153 -0.411807,-7.55639 V 76.82888 h 11.791268 11.791263 l -0.0835,6.283854 c -0.0939,7.069371 -0.2068,7.540913 -2.23144,9.318565 -1.37825,1.210122 -2.61641,1.676381 -4.47784,1.686244 -1.29254,0.0069 -1.88603,-0.14713 -3.0987,-0.803941 l -1.499963,-0.812412 -0.373683,0.570313 c -0.634224,0.967948 -2.959502,2.05645 -4.626467,2.165727 -0.826346,0.05417 -1.800873,6.35e-4 -2.165618,-0.118982 z m 3.990816,-5.833599 c 0.765734,-0.765735 0.773397,-0.803748 0.773397,-3.836459 v -3.06306 h -2.513541 -2.513542 v 2.606351 c 0,3.016926 0.307799,4.134573 1.284834,4.66535 1.128644,0.61314 2.106061,0.490608 2.968852,-0.372182 z m 8.460965,-0.557363 c 0.93015,-0.4978 1.30827,-1.677018 1.30827,-4.080059 V 82.38513 h -2.51355 -2.51354 v 2.533894 c 0,2.447842 0.0263,2.560159 0.7734,3.307291 0.81904,0.819043 1.98163,1.01678 2.94542,0.500971 z"
           style="fill:#717171;stroke-width:0.26458332" />
        <path
           inkscape:connector-curvature="0"
           id="path1180"
           d="m 87.085716,198.27336 v -2.86705 l 2.315104,-0.77134 2.315104,-0.77134 0.07354,-3.60525 0.07354,-3.60525 -2.370634,-0.73869 -2.370633,-0.73869 -0.08416,-2.84481 c -0.04629,-1.56465 0.0067,-2.84457 0.117832,-2.84427 0.111093,2.6e-4 4.218749,1.31809 9.128124,2.92844 4.909377,1.61035 10.027467,3.28704 11.373537,3.72599 l 2.4474,0.79808 v 3.26305 3.26306 l -11.509382,3.83757 -11.509375,3.83757 z m 12.992784,-7.03298 c 1.61086,-0.52076 2.88858,-0.98682 2.83938,-1.0357 -0.11311,-0.11235 -5.899999,-1.98622 -6.133881,-1.98622 -0.09531,0 -0.173283,0.89297 -0.173283,1.98437 0,1.17054 0.110517,1.98438 0.269474,1.98438 0.148211,0 1.587451,-0.42608 3.19831,-0.94683 z m -13.199887,-15.5195 0.07481,-2.97259 6.214977,-3.44356 6.214977,-3.44356 -6.281123,-0.0709 -6.281123,-0.0709 v -2.90563 -2.90563 h 11.782624 11.782625 l -0.0748,2.93497 -0.0748,2.93497 -6.05535,3.34889 -6.055354,3.34888 6.121494,0.071 6.1215,0.071 v 3.03784 3.03783 H 98.586425 86.803802 Z m -0.05748,-19.44699 v -2.89702 l 2.38125,-0.73046 2.38125,-0.73046 v -3.6739 -3.67391 l -2.38125,-0.72491 -2.38125,-0.72491 v -2.86776 c 0,-2.85323 0.003,-2.86681 0.595313,-2.67993 3.841673,1.21207 22.248004,7.28003 22.436634,7.39661 0.13826,0.0855 0.25139,1.56717 0.25139,3.29271 v 3.13735 l -11.310941,3.76518 c -6.221015,2.07084 -11.459765,3.8199 -11.641666,3.8868 -0.251853,0.0926 -0.33073,-0.5693 -0.33073,-2.77539 z m 12.832292,-6.96126 c 1.455205,-0.46613 2.738075,-0.93089 2.850815,-1.0328 0.11274,-0.10191 -1.07788,-0.58287 -2.64583,-1.06878 -1.56795,-0.48592 -2.999646,-0.93624 -3.181548,-1.00072 -0.246958,-0.0875 -0.330729,0.42396 -0.330729,2.01944 0,1.58795 0.08493,2.11018 0.330729,2.03352 0.181902,-0.0567 1.521355,-0.48453 2.976563,-0.95066 z m -12.826166,-15.66448 0.0061,-2.97656 6.069201,-3.3073 c 3.33806,-1.81901 6.073741,-3.39658 6.079291,-3.50573 0.0055,-0.10914 -2.728348,-0.19843 -6.075327,-0.19843 h -6.085417 v -2.91042 -2.91042 h 11.641667 11.641666 l -0.004,2.97657 -0.004,2.97656 -5.94904,3.26638 c -3.27197,1.7965 -6.019497,3.38038 -6.105617,3.51972 -0.09857,0.15949 2.107037,0.22366 5.953357,0.17321 l 6.10995,-0.0801 -2.6e-4,2.97656 -2.6e-4,2.97656 H 98.462799 86.821132 Z m -0.0061,-19.45552 v -2.88857 l 2.182813,-0.6509 2.182812,-0.65091 0.0733,-3.73544 0.0733,-3.73544 -2.322253,-0.74656 -2.322253,-0.74656 -0.07531,-2.865004 c -0.0696,-2.647977 -0.03954,-2.853589 0.396875,-2.714263 0.259701,0.08291 5.472808,1.79245 11.584683,3.798976 l 11.112494,3.648231 v 3.27692 3.27691 l -10.980203,3.66246 c -6.039114,2.01435 -11.188567,3.72912 -11.443229,3.81059 -0.421744,0.13493 -0.463021,-0.10937 -0.463021,-2.74044 z m 12.898438,-6.95659 c 1.491593,-0.48749 2.711983,-0.9607 2.711983,-1.05156 0,-0.28436 -5.940929,-2.03798 -6.180798,-1.82442 -0.345941,0.308 0.08872,4.01284 0.4547,3.87562 0.166175,-0.0623 1.522526,-0.51214 3.014115,-0.99964 z m -8.40865,-12.292713 c -1.574529,-0.485375 -3.23446,-1.935258 -4.003534,-3.496926 -0.590464,-1.198987 -0.622489,-1.559637 -0.704773,-7.936792 l -0.0862,-6.680729 h 11.794013 11.794017 v 5.640519 c 0,6.414109 -0.2193,7.616024 -1.7066,9.353603 -1.97479,2.307096 -5.36406,2.90987 -8.14279,1.448176 l -1.436452,-0.755619 -1.072804,1.0007 c -1.082017,1.009295 -3.197315,1.851884 -4.556567,1.815025 -0.37377,-0.01014 -1.219009,-0.184717 -1.87831,-0.387957 z m 4.261788,-5.658678 c 0.765734,-0.765735 0.773397,-0.803748 0.773397,-3.836459 v -3.06306 h -2.513541 -2.513542 l 0.0094,2.84427 c 0.01007,3.054127 0.251005,3.854358 1.342664,4.459418 1.054152,0.584272 2.052227,0.44525 2.901647,-0.404169 z m 8.894585,-0.923076 c 0.70792,-0.608543 0.74657,-0.761935 0.83329,-3.307292 l 0.0909,-2.669151 h -2.53833 -2.53834 v 2.622313 c 0,2.603403 0.006,2.627253 0.81405,3.307292 1.05689,0.889314 2.33742,0.90728 3.33839,0.04684 z"
           style="fill:#4d4d4d;stroke-width:0.26458332" />
        <path
           inkscape:connector-curvature="0"
           id="path1178"
           d="m 87.085716,198.20345 v -2.71501 l 2.315104,-0.79072 2.315104,-0.79072 v -3.68101 -3.68101 l -2.248958,-0.69221 -2.248959,-0.69221 -0.07542,-2.86854 c -0.05914,-2.24931 -0.002,-2.84135 0.264583,-2.74258 0.187002,0.0693 5.370395,1.77259 11.51865,3.78513 l 11.17865,3.65917 v 3.1981 3.19809 l -11.17865,3.77037 c -6.148255,2.0737 -11.327474,3.76762 -11.509375,3.76426 -0.2427,-0.004 -0.330729,-0.72875 -0.330729,-2.72111 z m 15.774074,-7.94379 c 0.14278,-0.14278 -5.642046,-2.0412 -6.219913,-2.0412 -0.32958,0 -0.366303,0.81308 -0.12676,2.8066 l 0.162385,1.3514 3.019276,-0.98553 c 1.660602,-0.54205 3.084852,-1.05111 3.165012,-1.13127 z M 87.085716,175.70012 v -2.99334 l 6.151562,-3.42281 6.151563,-3.4228 -6.283854,-0.0709 -6.283855,-0.0709 v -2.90563 -2.90563 h 11.613359 c 10.345789,0 11.630889,0.0457 11.773959,0.41852 0.0883,0.23018 0.1606,1.52923 0.1606,2.88678 v 2.46827 l -6.21014,3.39707 c -3.41558,1.86839 -6.213546,3.49969 -6.217709,3.62511 -0.0042,0.12674 2.754479,0.14174 6.210139,0.0338 l 6.21771,-0.19429 v 2.90165 2.90165 l -3.77031,0.17248 c -2.07368,0.0949 -7.312425,0.17292 -11.64167,0.17345 l -7.871354,9.7e-4 z m -0.207712,-19.37671 0.07542,-2.85461 2.32222,-0.77355 2.322219,-0.77355 -0.07326,-3.71764 -0.07326,-3.71765 -2.314203,-0.6897 -2.314203,-0.68971 -9.01e-4,-2.87258 c -7.12e-4,-2.26377 0.07276,-2.84431 0.346648,-2.73921 0.191152,0.0734 5.363876,1.77418 11.49494,3.77961 l 11.147386,3.64624 0.0806,3.25163 0.0806,3.25163 -11.244786,3.7532 c -6.184635,2.06426 -11.397793,3.80884 -11.584795,3.87685 -0.266446,0.0969 -0.323687,-0.49393 -0.264583,-2.73096 z m 12.77661,-6.97432 c 1.454556,-0.45971 2.823236,-0.9054 3.041516,-0.99042 0.31924,-0.12434 -5.426898,-2.18238 -6.15156,-2.20325 -0.109141,-0.003 -0.198438,0.95953 -0.198438,2.13926 0,1.61138 0.08257,2.11329 0.331919,2.01761 0.182556,-0.0701 1.522009,-0.5035 2.976563,-0.9632 z m -12.776001,-15.69696 0.07481,-2.97258 6.214977,-3.44357 6.214977,-3.44356 -6.281123,-0.0709 -6.281123,-0.0709 v -2.90563 -2.90563 H 98.471464 110.1218 l -0.0748,2.97503 -0.0748,2.97502 -6.2177,3.44112 -6.217713,3.44113 6.283853,0.0709 6.28386,0.0709 v 2.90562 2.90563 H 98.454134 86.803802 Z m -2.86e-4,-19.42933 0.0751,-2.82275 2.322411,-0.77361 2.322411,-0.77361 -0.07345,-3.61354 -0.07345,-3.61354 -2.315104,-0.79072 -2.315105,-0.79071 v -2.812454 -2.812451 l 11.44323,3.751668 11.44323,3.751667 0.074,3.1936 c 0.0662,2.85559 0.0242,3.21359 -0.39688,3.38238 -0.60987,0.24448 -22.372702,7.54681 -22.491442,7.54681 -0.04954,0 -0.05629,-1.27023 -0.01498,-2.82274 z m 12.973534,-6.98674 c 1.564349,-0.48388 2.844269,-0.94653 2.844269,-1.0281 0,-0.0816 -1.33945,-0.55516 -2.97656,-1.05242 -1.63711,-0.49725 -3.125391,-0.9552 -3.307292,-1.01765 -0.246977,-0.0848 -0.330729,0.43745 -0.330729,2.06229 0,1.94539 0.04904,2.16205 0.463021,2.04575 0.254661,-0.0716 1.742943,-0.52599 3.307291,-1.00987 z M 91.980507,95.101332 C 89.711609,94.48988 88.428378,93.491768 87.408195,91.544935 86.703324,90.199816 86.697698,90.144817 86.604254,83.684422 l -0.0941,-6.505916 4.587261,-0.174004 c 2.522993,-0.0957 7.841306,-0.174368 11.818475,-0.174813 l 7.23121,-8.09e-4 -0.0918,6.151562 c -0.0869,5.822551 -0.125,6.218868 -0.71269,7.409984 -1.64491,3.333894 -5.76121,4.630495 -9.10924,2.869331 l -1.458164,-0.76704 -0.751515,0.801436 c -1.352986,1.44286 -4.216992,2.299325 -6.043182,1.807179 z m 3.551575,-5.728264 0.81405,-0.684978 v -3.15148 -3.15148 h -2.5357 -2.5357 l 0.0883,3.198514 c 0.08638,3.1288 0.104485,3.212418 0.830663,3.836458 1.001021,0.860225 2.281608,0.842183 3.338383,-0.04703 z m 9.036488,-1.146753 c 0.74646,-0.746465 0.7734,-0.861093 0.7734,-3.291676 0,-1.385054 -0.1179,-2.591143 -0.262,-2.680199 -0.14409,-0.08906 -1.27518,-0.07971 -2.51354,0.02077 l -2.25155,0.18269 v 2.573369 c 0,2.427643 0.0395,2.612868 0.69754,3.270906 1.00244,1.002441 2.51001,0.970282 3.55615,-0.07586 z"
           style="fill:#303030;stroke-width:0.26458332" />
        <path
           inkscape:connector-curvature="0"
           id="path1176"
           d="m 87.085716,198.1901 v -2.72835 l 2.388197,-0.76322 2.388198,-0.76322 -0.07309,-3.71055 -0.07309,-3.71055 -2.248958,-0.69187 -2.248959,-0.69187 -0.07488,-2.80043 -0.07488,-2.80042 2.720716,0.8656 c 1.496393,0.47608 6.679543,2.16128 11.51811,3.74489 l 8.7974,2.87929 v 3.18152 3.18152 l -11.314322,3.76801 c -6.222876,2.0724 -11.402095,3.76801 -11.509375,3.76801 -0.107281,0 -0.195056,-1.22776 -0.195056,-2.72836 z m 13.189384,-6.94153 c 1.65161,-0.52191 2.956,-0.99584 2.89865,-1.05319 -0.17636,-0.17636 -6.053073,-1.97692 -6.452318,-1.97692 -0.292997,0 -0.3753,0.46809 -0.3753,2.13449 0,1.9117 0.04833,2.11937 0.463021,1.98951 0.254662,-0.0797 1.814337,-0.57199 3.465947,-1.09389 z m -13.188352,-15.48942 0.001,-3.01882 6.227069,-3.43958 6.227069,-3.43958 -6.228101,-0.0709 -6.228102,-0.0709 v -2.90563 -2.90563 h 11.51804 11.518047 l -0.0748,2.95276 -0.0748,2.95275 -6.2177,3.46339 -6.217716,3.46339 6.416146,0.0709 6.41615,0.0708 v 2.77342 2.77342 l -5.49011,5.3e-4 c -3.01955,2.7e-4 -8.258305,0.0789 -11.641665,0.17455 l -6.151562,0.17402 0.001,-3.01882 z m -0.208726,-19.59993 0.0754,-2.69049 2.32222,-0.77351 2.322219,-0.77352 -0.07326,-3.73438 -0.07326,-3.73438 -2.248959,-0.6843 -2.248958,-0.6843 -0.07484,-2.80767 -0.07484,-2.80767 5.101924,1.65456 c 2.806059,0.91002 7.98919,2.59523 11.518072,3.74493 l 6.41614,2.09036 v 3.21922 3.21923 l -11.178677,3.72621 c -6.148276,2.04941 -11.331659,3.7262 -11.518631,3.7262 -0.259533,0 -0.322113,-0.63645 -0.264548,-2.69049 z m 13.172278,-6.8914 c 1.38245,-0.43428 2.60613,-0.87627 2.71929,-0.98221 0.17046,-0.15957 -5.593911,-2.13785 -6.22502,-2.13637 -0.109141,2.6e-4 -0.198438,0.96099 -0.198438,2.13497 0,2.09068 0.01222,2.13078 0.595313,1.95385 0.327422,-0.0993 1.726406,-0.53596 3.108855,-0.97024 z m -13.171687,-15.58903 0.07481,-2.94592 5.953125,-3.29498 c 3.274219,-1.81224 6.066234,-3.40361 6.204479,-3.53638 0.151759,-0.14574 -2.23328,-0.24138 -6.019271,-0.24138 h -6.270625 v -2.91042 -2.91042 H 98.471464 110.1218 l -0.0748,2.93584 -0.0748,2.93583 -5.95312,3.30766 c -3.27422,1.81922 -6.066235,3.41513 -6.20448,3.54646 -0.149844,0.14236 2.28107,0.2388 6.01927,0.2388 h 6.27063 v 2.91041 2.91042 H 98.454134 86.803802 Z m -1e-4,-19.48439 0.07491,-2.81438 2.248958,-0.71498 2.248959,-0.71498 0.07332,-3.71389 0.07332,-3.71389 -2.388427,-0.71679 -2.388427,-0.71679 v -2.737202 c 0,-1.505461 0.0893,-2.737434 0.198438,-2.737716 0.10914,-2.91e-4 5.288359,1.669974 11.509375,3.711682 l 11.310931,3.712196 v 3.14507 3.14506 l -11.518134,3.84049 -11.518139,3.8405 z m 12.708765,-6.84568 c 1.709872,-0.5387 3.108852,-1.05771 3.108852,-1.15335 0,-0.15073 -5.98493,-2.11441 -6.44433,-2.11441 -0.241026,0 -0.212895,4.23184 0.02819,4.24027 0.10914,0.004 1.597421,-0.43381 3.307291,-0.97251 z M 90.305267,94.396318 C 89.545021,94.017472 88.632359,93.326453 88.277129,92.860722 86.98955,91.17262 86.881375,90.549455 86.676839,83.6419 l -0.193903,-6.548437 6.32066,-6.94e-4 c 3.476364,-3.83e-4 8.731674,-0.07881 11.678474,-0.174288 l 5.35781,-0.173592 v 6.207754 c 0,6.122996 -0.009,6.226232 -0.67439,7.561082 -1.71921,3.449997 -6.27806,4.60281 -9.453825,2.390623 l -0.73551,-0.512344 -1.044534,0.943674 c -1.412095,1.275744 -2.659978,1.749451 -4.60856,1.749451 -1.231529,0 -1.97697,-0.170147 -3.017794,-0.688811 z m 5.230861,-4.801293 c 0.769787,-0.62363 0.980526,-1.822969 0.860076,-4.894791 l -0.101152,-2.579688 -1.495814,0.0029 c -0.822698,0.0016 -1.942298,0.07671 -2.488001,0.166911 l -0.992188,0.163998 v 3.028442 c 0,2.994448 0.0087,3.037124 0.773397,3.80184 0.918462,0.918461 2.515419,1.062394 3.443682,0.310376 z m 8.652132,-0.912956 c 0.88716,-0.422604 1.15371,-1.362924 1.15371,-4.070012 v -2.510673 l -2.57969,0.07573 -2.57969,0.07573 0.0165,2.550393 c 0.019,2.928052 0.3806,3.775043 1.77079,4.147484 0.88579,0.237306 1.24843,0.193389 2.21836,-0.268646 z"
           style="fill:#000000;stroke-width:0.26458332" />
      </g>
    </g>
  </g>
</svg>
