<?xml version="1.0" encoding="UTF-8" standalone="no"?>
<!-- Created with Inkscape (http://www.inkscape.org/) -->

<svg
   xmlns:dc="http://purl.org/dc/elements/1.1/"
   xmlns:cc="http://creativecommons.org/ns#"
   xmlns:rdf="http://www.w3.org/1999/02/22-rdf-syntax-ns#"
   xmlns:svg="http://www.w3.org/2000/svg"
   xmlns="http://www.w3.org/2000/svg"
   xmlns:sodipodi="http://sodipodi.sourceforge.net/DTD/sodipodi-0.dtd"
   xmlns:inkscape="http://www.inkscape.org/namespaces/inkscape"
   width="126mm"
   height="24mm"
   viewBox="0 0 126 24"
   version="1.1"
   id="svg8"
   inkscape:export-filename="C:\Users\岡村　大輔\Desktop\logo_sp.png"
   inkscape:export-xdpi="96.34256"
   inkscape:export-ydpi="96.34256"
   sodipodi:docname="title_sp.svg"
   inkscape:version="0.92.2 (5c3e80d, 2017-08-06)">
  <defs
     id="defs2" />
  <sodipodi:namedview
     id="base"
     pagecolor="#ffffff"
     bordercolor="#666666"
     borderopacity="1.0"
     inkscape:pageopacity="0.0"
     inkscape:pageshadow="2"
     inkscape:zoom="1.4"
     inkscape:cx="249.09779"
     inkscape:cy="76.695911"
     inkscape:document-units="mm"
     inkscape:current-layer="layer1"
     showgrid="false"
     inkscape:window-width="1366"
     inkscape:window-height="705"
     inkscape:window-x="-8"
     inkscape:window-y="-8"
     inkscape:window-maximized="1"
     fit-margin-top="0"
     fit-margin-left="0"
     fit-margin-right="0"
     fit-margin-bottom="0"
     inkscape:showpageshadow="false" />
  <metadata
     id="metadata5">
    <rdf:RDF>
      <cc:Work
         rdf:about="">
        <dc:format>image/svg+xml</dc:format>
        <dc:type
           rdf:resource="http://purl.org/dc/dcmitype/StillImage" />
        <dc:title></dc:title>
      </cc:Work>
    </rdf:RDF>
  </metadata>
  <g
     inkscape:label="レイヤー 1"
     inkscape:groupmode="layer"
     id="layer1"
     transform="translate(-17.311306,-216.82274)">
    <g
       id="g1145"
       transform="translate(-1.0394345,32.789435)">
      <path
         style="fill:#fefefe;stroke-width:0.26458332"
         d="M 18.350742,196.08035 V 184.1741 h 63.103125 63.103123 v 11.90625 11.90625 H 81.453867 18.350742 Z"
         id="path1161"
         inkscape:connector-curvature="0" />
      <path
         style="fill:#cecece;stroke-width:0.26458332"
         d="m 18.350742,196.07592 v -11.93536 l 6.548438,0.0829 c 7.187602,0.091 7.340421,0.12185 9.04412,1.82555 1.430282,1.43028 1.985547,2.78979 1.994376,4.883 0.0065,1.53179 -0.123291,2.11592 -0.729591,3.28454 l -0.737449,1.4214 0.773974,0.8165 c 1.345048,1.41896 1.742868,2.47583 1.751442,4.65296 0.0088,2.2457 -0.419797,3.37436 -1.834875,4.83142 -1.78205,1.83492 -2.136743,1.90661 -9.865123,1.99394 l -6.945312,0.0785 z m 12.455769,6.1102 c 0.527843,-0.52784 0.773398,-1.03834 0.773398,-1.60785 0,-0.56952 -0.245555,-1.08001 -0.773398,-1.60786 -0.765734,-0.76573 -0.803748,-0.77339 -3.836458,-0.77339 h -3.063061 v 2.38125 2.38125 h 3.063061 c 3.03271,0 3.070724,-0.008 3.836458,-0.7734 z m -0.982474,-8.91997 c 0.944804,-0.94481 0.966666,-2.49698 0.04811,-3.41553 -0.603322,-0.60333 -0.838145,-0.64944 -3.307292,-0.64944 h -2.65786 v 2.38125 2.38125 h 2.609754 c 2.466956,0 2.647921,-0.0382 3.307291,-0.69753 z m 10.990743,3.02087 3.90608,-11.71605 3.42926,-0.0734 3.429262,-0.0735 0.585835,1.79324 c 0.32221,0.98628 2.060612,6.29152 3.863115,11.78942 l 3.27728,9.99617 -3.058377,-0.0743 -3.058377,-0.0743 -0.691917,-2.24896 -0.691915,-2.24896 -3.605784,-0.0735 -3.605781,-0.0735 -0.773678,2.32241 -0.773677,2.32241 -3.068704,0.0744 -3.068703,0.0744 z m 9.205896,1.55381 c -0.07517,-0.1959 -0.520652,-1.59488 -0.989951,-3.10885 l -0.853274,-2.75267 -0.370956,1.05833 c -0.204026,0.58209 -0.654611,1.98107 -1.001297,3.10886 l -0.630341,2.05052 h 1.991249 c 1.56019,0 1.961663,-0.0771 1.85457,-0.35619 z m 9.869649,-1.76048 V 184.1741 l 3.108854,5.3e-4 3.108855,5.2e-4 3.307291,6.05106 3.307292,6.05106 0.07102,-6.05159 0.07102,-6.05158 h 3.170124 3.170124 v 11.90625 11.90625 H 76.04549 72.886074 l -3.389022,-6.15156 -3.389018,-6.15156 -0.07102,6.15156 -0.07102,6.15156 H 62.928162 59.89033 Z m 19.84375,11.70785 c 0,-0.10913 1.736323,-5.40741 3.858496,-11.77396 l 3.858495,-11.57556 h 3.400341 3.400337 l 3.727884,11.37241 c 2.050332,6.25482 3.797222,11.5531 3.881972,11.77396 0.13231,0.34478 -0.27962,0.40155 -2.913959,0.40155 h -3.06805 l -0.724911,-2.38125 -0.724913,-2.38125 h -3.616381 -3.616381 l -0.730461,2.38125 -0.730462,2.38125 H 82.73508 c -1.650553,0 -3.001005,-0.0893 -3.001005,-0.1984 z M 92.629917,197.734 c -0.646554,-2.29474 -1.66851,-5.35782 -1.787564,-5.35782 -0.165971,0 -1.847861,5.00936 -1.847861,5.50369 0,0.21676 0.595979,0.31715 1.882942,0.31715 1.666589,0 1.867953,-0.0532 1.752483,-0.46302 z m 9.858323,-1.65365 V 184.1741 h 3.14148 3.14147 l 3.27467,5.97053 3.27467,5.97053 0.0711,-5.97053 0.0711,-5.97053 h 3.17003 3.17004 v 11.90625 11.90625 h -3.13158 -3.13157 l -3.28457,-5.98447 -3.28458,-5.98446 -0.0711,5.98446 -0.0711,5.98447 h -3.17003 -3.17004 z m 19.92898,11.53661 c 0.078,-0.20331 1.82408,-5.505 3.88014,-11.78153 l 3.73829,-11.41189 3.44042,0.0737 3.44042,0.0737 3.81707,11.50938 c 2.09939,6.33016 3.8185,11.59867 3.82025,11.70781 0.002,0.10914 -1.34364,0.19844 -2.98976,0.19844 h -2.99293 l -0.761,-2.38125 -0.761,-2.38125 h -3.60723 -3.60724 l -0.71281,2.38125 -0.71282,2.38125 h -3.06682 c -2.51695,0 -3.04139,-0.0663 -2.92498,-0.36964 z m 12.13577,-12.33036 c -0.52884,-1.60073 -1.02436,-2.90863 -1.10116,-2.90644 -0.11398,0.003 -1.27982,3.48262 -1.79393,5.35384 -0.11298,0.41123 0.0956,0.46302 1.8647,0.46302 h 1.99191 z"
         id="path1159"
         inkscape:connector-curvature="0" />
      <path
         style="fill:#adadad;stroke-width:0.26458332"
         d="M 18.350742,196.08035 V 184.1741 l 6.151562,0.003 c 5.887287,0.002 6.208397,0.0291 7.47448,0.61994 3.52127,1.64325 5.012916,5.82376 3.285873,9.20905 -0.275103,0.53924 -0.623498,1.05665 -0.774212,1.1498 -0.160596,0.0992 0.160493,0.663 0.77569,1.3619 3.192248,3.62658 2.046131,8.92652 -2.36131,10.91928 -1.095128,0.49515 -1.726468,0.53879 -7.871354,0.54414 l -6.680729,0.006 z m 12.579735,6.22973 c 0.90249,-0.90249 0.90249,-2.56114 0,-3.46363 -0.617634,-0.61763 -0.80548,-0.64943 -3.836458,-0.64943 h -3.187027 v 2.38125 2.38125 h 3.187027 c 3.030978,0 3.218824,-0.0318 3.836458,-0.64944 z m -1.228315,-8.80942 c 1.214543,-1.00041 1.099031,-3.31884 -0.199994,-4.01406 -0.293318,-0.15698 -1.672226,-0.28542 -3.06424,-0.28542 h -2.530936 v 2.38125 2.38125 h 2.616522 c 2.101393,0 2.72719,-0.0911 3.178648,-0.46302 z m 7.436742,14.29617 c 0.0015,-0.11391 1.702143,-5.38632 3.779185,-11.71648 l 3.776439,-11.50938 h 3.40829 3.408288 l 3.903718,11.70782 3.903718,11.70781 H 56.319191 53.31984 l -0.771702,-2.3151 -0.771702,-2.31511 h -3.670271 -3.670273 l -0.684669,2.24896 -0.684669,2.24896 -2.965198,0.0748 c -1.630858,0.0411 -2.963962,-0.0184 -2.962452,-0.13229 z m 12.961838,-9.78631 c 0,-0.10258 -0.441759,-1.52873 -0.981686,-3.16923 l -0.981686,-2.98272 -0.997535,3.10308 c -0.548645,1.70669 -0.999855,3.13284 -1.002689,3.16922 -0.0028,0.0364 0.887815,0.0662 1.979221,0.0662 1.091406,0 1.984375,-0.0839 1.984375,-0.1865 z m 9.789583,-1.93017 V 184.1741 l 3.108854,0.0105 3.108855,0.0105 3.307291,6.07211 3.307292,6.0721 0.07102,-6.08262 0.07102,-6.08263 h 3.170124 3.170124 v 11.90625 11.90625 h -3.141454 -3.141456 l -3.406981,-6.21121 -3.406984,-6.2112 -0.07094,6.2112 -0.07093,6.21121 h -3.037919 -3.03792 z m 19.84375,11.70785 c 0,-0.10913 1.736323,-5.40741 3.858496,-11.77396 l 3.858495,-11.57556 h 3.354081 3.35408 l 3.284427,9.85573 c 1.806432,5.42065 3.552186,10.71893 3.879436,11.77396 l 0.59502,1.91823 H 98.945654 95.9732 l -0.761,-2.38125 -0.761,-2.38125 h -3.651429 -3.65143 l -0.724911,2.38125 -0.724913,2.38125 h -2.98222 c -1.640223,0 -2.982222,-0.0893 -2.982222,-0.1984 z m 12.964584,-9.8526 c 0,-0.41681 -1.620642,-5.40616 -1.828142,-5.62817 -0.103348,-0.11057 -0.611825,1.16935 -1.129948,2.84427 l -0.942038,3.04532 h 1.950064 c 1.107919,0 1.950064,-0.1129 1.950064,-0.26142 z m 9.789581,-1.85525 V 184.1741 h 3.11132 3.11132 l 3.43712,6.25855 3.43712,6.25855 0.0709,-6.25855 0.0709,-6.25855 h 3.03792 3.03792 v 11.90625 11.90625 l -3.10886,-0.003 -3.10885,-0.003 -3.37292,-6.14807 -3.37291,-6.14807 -5.2e-4,6.15156 -5.3e-4,6.15156 h -3.175 -3.175 z m 19.90935,11.57552 c 0.0672,-0.1819 1.83509,-5.48018 3.92861,-11.77396 l 3.80639,-11.44323 h 3.36755 3.36756 l 3.67383,11.17865 c 2.02061,6.14825 3.75872,11.44654 3.86247,11.77396 0.18806,0.59345 0.17927,0.59531 -2.8114,0.59531 h -3.00005 l -0.72491,-2.38125 -0.72491,-2.38125 h -3.65143 -3.65143 l -0.761,2.38125 -0.761,2.38125 h -3.02125 c -2.30579,0 -2.9923,-0.0783 -2.89903,-0.33073 z M 134.5505,195.1517 c -0.51813,-1.67492 -1.02764,-2.95484 -1.13226,-2.84427 -0.19084,0.20171 -1.82583,5.28858 -1.82583,5.68063 0,0.11493 0.87753,0.20896 1.95006,0.20896 h 1.95007 z"
         id="path1157"
         inkscape:connector-curvature="0" />
      <path
         style="fill:#8e8e8e;stroke-width:0.26458332"
         d="M 18.350742,196.09637 V 184.1741 l 5.886979,10e-4 c 3.237839,8.1e-4 6.317704,0.12111 6.844144,0.26735 4.204454,1.16788 6.244381,6.56291 3.82792,10.12376 l -0.597918,0.88108 1.015053,1.14382 c 1.007565,1.13539 1.809239,3.13636 1.809239,4.51584 0,2.2795 -1.502875,4.75294 -3.6575,6.01954 l -1.237292,0.72734 -6.945313,0.0822 -6.945312,0.0822 z m 12.579735,6.21371 c 0.90249,-0.90249 0.90249,-2.56114 0,-3.46363 -0.617634,-0.61763 -0.80548,-0.64943 -3.836458,-0.64943 h -3.187027 v 2.38125 2.38125 h 3.187027 c 3.030978,0 3.218824,-0.0318 3.836458,-0.64944 z m -1.052557,-8.95605 c 0.975691,-0.83926 1.037943,-2.50842 0.129612,-3.47529 -0.603294,-0.64218 -0.779186,-0.67756 -3.368536,-0.67756 h -2.732004 v 2.38125 2.38125 h 2.631079 c 2.365417,0 2.702644,-0.0616 3.339849,-0.60965 z m 7.258239,14.43417 c 0,-0.10913 1.737481,-5.41088 3.861069,-11.78168 l 3.86107,-11.58328 3.340569,0.0739 3.340571,0.0739 3.762182,11.37709 c 2.0692,6.25739 3.769555,11.52591 3.778567,11.70781 0.01217,0.24551 -0.732507,0.33073 -2.889837,0.33073 h -2.906223 l -0.714902,-2.38821 -0.714899,-2.38822 -3.699356,0.0731 -3.699358,0.0731 -0.771358,2.31511 -0.771359,2.3151 h -2.888368 c -1.588603,0 -2.888368,-0.0893 -2.888368,-0.1984 z m 12.964583,-9.74796 c 0,-0.0862 -0.439677,-1.54474 -0.977061,-3.24114 l -0.977062,-3.08437 -0.879337,2.77812 c -0.483634,1.52797 -0.944951,2.98648 -1.025144,3.24115 -0.130061,0.41302 0.07038,0.46302 1.856399,0.46302 1.101214,0 2.002205,-0.0705 2.002205,-0.15678 z m 9.789583,-1.96829 v -11.91464 l 3.090908,0.0745 3.090907,0.0745 3.325239,6.04612 3.325238,6.04613 0.07104,-6.12063 0.07104,-6.12062 3.103956,0.0745 3.103957,0.0745 0.06887,11.84011 0.06887,11.8401 h -3.128907 -3.128906 l -3.422256,-6.25508 -3.422253,-6.25508 -0.07094,6.25508 -0.07093,6.25508 h -3.037919 -3.03792 z m 19.93037,11.54139 c 0.08256,-0.21515 1.838359,-5.51747 3.901773,-11.78292 l 3.751662,-11.39174 h 3.35066 3.350659 l 3.857138,11.77396 3.857143,11.77396 H 98.931464 95.9732 l -0.76322,-2.3882 -0.763222,-2.38819 -3.676306,0.0731 -3.676306,0.0731 -0.715013,2.24896 -0.715012,2.24896 -2.996769,0.0751 c -2.555743,0.0641 -2.974679,0.0175 -2.846657,-0.31608 z m 12.120898,-12.45286 c -0.5295,-1.6701 -1.033177,-3.03932 -1.119283,-3.04271 -0.08611,-0.003 -0.294259,0.44031 -0.46256,0.98602 -0.168302,0.5457 -0.594648,1.91492 -0.947439,3.04271 l -0.641434,2.05052 h 2.066721 2.066721 z m 10.546647,0.91987 V 184.1741 l 3.10886,0.006 3.10885,0.006 3.43958,6.27788 3.43959,6.27789 0.0709,-6.28386 0.0709,-6.28385 h 3.03792 3.03792 v 11.90625 11.90625 l -3.10886,-0.006 -3.10885,-0.006 -3.175,-5.84238 c -1.74625,-3.21331 -3.32004,-6.03817 -3.49732,-6.27746 -0.2566,-0.34639 -0.32403,0.84597 -0.33073,5.84877 l -0.008,6.28385 h -3.04271 -3.04271 z m 22.33975,4.43177 c 1.34021,-4.11096 3.08027,-9.40924 3.86679,-11.77396 l 1.43004,-4.29948 h 3.34606 3.34606 l 3.75166,11.39174 c 2.06341,6.26545 3.81921,11.56777 3.90177,11.78292 0.12801,0.33358 -0.28974,0.38012 -2.83663,0.31608 l -2.98676,-0.0751 -0.77121,-2.31511 -0.77121,-2.3151 h -3.66986 -3.66986 l -0.71464,2.38125 -0.71464,2.38125 h -2.97216 -2.97216 z m 10.36485,-3.43958 c -0.91186,-2.98931 -1.60177,-4.96036 -1.73428,-4.95477 -0.0805,0.003 -0.57959,1.37261 -1.10909,3.04271 l -0.96272,3.03654 h 2.07455 2.07455 z"
         id="path1155"
         inkscape:connector-curvature="0" />
      <path
         style="fill:#6f6f6f;stroke-width:0.26458332"
         d="M 18.350742,196.08035 V 184.1741 h 5.905992 c 6.625778,0 7.559445,0.17162 9.371461,1.72264 2.444575,2.09247 2.976208,6.26332 1.129007,8.85747 -0.51367,0.72139 -0.513665,0.72145 0.1042,1.3019 0.339842,0.31927 0.955287,1.19947 1.367654,1.95601 1.484165,2.72288 0.826282,6.22422 -1.551996,8.25994 -1.782585,1.52583 -2.885922,1.71454 -10.02434,1.71454 h -6.301978 z m 11.76116,6.76927 c 1.065628,-0.44524 1.468007,-1.10261 1.468007,-2.39828 0,-0.66166 -0.199696,-1.15516 -0.649432,-1.60489 -0.617634,-0.61763 -0.80548,-0.64943 -3.836458,-0.64943 h -3.187027 v 2.51354 2.51354 h 2.654331 c 1.690296,0 2.979843,-0.13601 3.550579,-0.37448 z m -0.188174,-9.49074 c 1.001432,-1.00143 1.001432,-2.55146 0,-3.55289 -0.666708,-0.66671 -0.907758,-0.72573 -3.367424,-0.82453 l -2.649312,-0.10641 v 2.70738 2.70738 l 2.649312,-0.10641 c 2.459666,-0.0988 2.700716,-0.15781 3.367424,-0.82452 z m 7.212431,14.42932 c 0,-0.10913 1.737481,-5.41088 3.861069,-11.78168 l 3.86107,-11.58328 3.320773,0.0739 3.320774,0.0739 3.79199,11.50938 c 2.085594,6.33016 3.794858,11.59867 3.798367,11.70781 0.0035,0.10914 -1.280917,0.19844 -2.854273,0.19844 h -2.860645 l -0.761,-2.38125 -0.761,-2.38125 h -3.726201 -3.726199 l -0.724912,2.38125 -0.724912,2.38125 h -2.907451 c -1.599098,0 -2.90745,-0.0893 -2.90745,-0.1984 z m 12.964583,-9.81207 c 0,-0.12149 -0.43312,-1.58001 -0.962488,-3.24115 l -0.962491,-3.02025 -1.021884,3.03392 c -0.562039,1.66865 -1.021887,3.12717 -1.021887,3.24114 0,0.11398 0.892969,0.20723 1.984375,0.20723 1.091406,0 1.984375,-0.0994 1.984375,-0.22089 z m 9.789583,-1.90418 v -11.91464 l 3.079054,0.0745 3.079055,0.0745 3.240389,5.90934 c 1.782215,3.25014 3.373202,6.04215 3.535529,6.20448 0.21713,0.21713 0.29514,-1.36226 0.29514,-5.97549 v -6.27062 h 2.910417 2.910416 v 11.90625 11.90625 l -2.976562,-0.001 -2.976563,-0.001 -3.439583,-6.27637 -3.439583,-6.27638 -0.07094,6.27771 -0.07093,6.27769 h -3.037919 -3.03792 z m 19.905912,11.59288 c 0.06911,-0.18683 1.838531,-5.48914 3.932044,-11.78292 l 3.806391,-11.44323 3.309596,0.0105 3.309599,0.0105 3.878405,11.76346 3.878408,11.76346 h -2.958025 -2.958021 l -0.727115,-2.38848 -0.727114,-2.38849 -3.753633,0.0734 -3.753636,0.0734 -0.684332,2.24896 -0.684334,2.24896 -2.996943,0.0751 c -2.35235,0.059 -2.969919,0.002 -2.87129,-0.26459 z m 12.21537,-12.30837 c -0.490458,-1.5623 -0.964493,-3.02081 -1.053412,-3.24114 -0.09337,-0.23135 -0.596035,0.94076 -1.189823,2.7744 -0.565486,1.74625 -1.030476,3.20477 -1.033309,3.24115 -0.0028,0.0364 0.93387,0.0662 2.081569,0.0662 h 2.086722 z m 10.476633,0.71549 v -11.91464 l 3.10886,0.0745 3.10885,0.0745 3.30729,6.0022 c 1.81901,3.3012 3.39659,6.08925 3.50573,6.19566 0.10914,0.1064 0.19844,-2.62435 0.19844,-6.06834 v -6.26181 h 3.04271 3.04271 v 11.91465 11.91464 l -3.10548,-0.0745 -3.10547,-0.0745 -3.31067,-6.00324 c -1.82087,-3.30179 -3.39997,-6.08983 -3.50911,-6.19566 -0.10914,-0.10583 -0.19844,2.62539 -0.19844,6.06938 v 6.26181 h -3.04271 -3.04271 z m 23.78968,0.20684 3.90331,-11.70782 3.28528,-0.0735 3.28527,-0.0735 3.8087,11.4506 c 2.09478,6.29782 3.86524,11.60345 3.93435,11.79028 0.0986,0.26664 -0.51963,0.32354 -2.87503,0.26459 l -3.00068,-0.0751 -0.6919,-2.24896 -0.69191,-2.24896 -3.74232,-0.0734 -3.74233,-0.0734 -0.72711,2.38849 -0.72712,2.38848 h -2.96091 -2.96091 z m 9.27752,1.85208 c -0.003,-0.0364 -0.46537,-1.4949 -1.02718,-3.24115 -0.58313,-1.81249 -1.09052,-3.00468 -1.18236,-2.77812 -0.0885,0.21828 -0.56471,1.6768 -1.05827,3.24115 l -0.89737,2.84427 h 2.08545 c 1.147,0 2.08288,-0.0298 2.07973,-0.0662 z"
         id="path1153"
         inkscape:connector-curvature="0" />
      <path
         style="fill:#4d4d4d;stroke-width:0.26458332"
         d="M 18.350742,196.09661 V 184.1741 h 5.772811 c 4.31368,0 6.10261,0.0984 7.077604,0.38928 3.957014,1.18054 5.774554,5.69821 3.837496,9.53845 l -0.774589,1.53563 0.625936,0.49236 c 0.344266,0.2708 0.953009,1.16088 1.352764,1.97795 1.658141,3.38911 0.410133,7.28101 -2.893324,9.02279 l -1.372656,0.72375 -6.813021,0.0824 -6.813021,0.0824 z m 11.756613,6.8695 c 0.373208,-0.14189 0.921361,-0.64791 1.218117,-1.12448 0.664029,-1.06638 0.514237,-2.18091 -0.418718,-3.11545 -0.618744,-0.61979 -0.859986,-0.66702 -3.830049,-0.74976 l -3.169713,-0.0883 v 2.66799 2.66799 h 2.760901 c 1.518495,0 3.066253,-0.11609 3.439462,-0.25799 z m -0.09282,-9.73421 c 1.011258,-1.13241 1.011258,-2.16652 0,-3.29894 -0.761225,-0.85243 -0.807563,-0.86529 -3.439583,-0.95501 l -2.667963,-0.0909 v 2.69542 2.69542 l 2.667963,-0.0909 c 2.63202,-0.0897 2.678358,-0.10258 3.439583,-0.95501 z m 7.222754,14.34361 c 0.08676,-0.22609 1.836165,-5.52438 3.887561,-11.77395 l 3.729813,-11.36288 h 3.262458 3.26246 l 3.858496,11.57556 c 2.122173,6.36655 3.858495,11.66483 3.858495,11.77396 0,0.10912 -1.28729,0.1984 -2.860646,0.1984 h -2.860645 l -0.761,-2.38125 -0.761,-2.38125 h -3.745765 -3.745764 l -0.714639,2.38125 -0.714638,2.38125 H 40.00601 c -2.537565,0 -2.905503,-0.0546 -2.768718,-0.41109 z M 49.31503,195.14535 c -0.547857,-1.67842 -1.061681,-3.11725 -1.141834,-3.1974 -0.122253,-0.12226 -2.041207,5.60076 -2.041207,6.08761 0,0.0888 0.940308,0.16146 2.089573,0.16146 h 2.089574 z m 10.575292,0.9266 v -11.91464 l 3.062608,0.0745 3.06261,0.0745 3.485827,6.35 3.48583,6.35 0.07085,-6.41614 0.07085,-6.41615 h 2.905712 2.905712 v 11.90625 11.90625 l -2.976562,-0.004 -2.976563,-0.004 -3.439583,-6.31326 -3.439583,-6.31325 -0.07085,6.31754 -0.07085,6.31753 h -3.038004 -3.038004 z m 21.27616,7.62361 c 0.760896,-2.36936 2.505567,-7.67477 3.87705,-11.78982 l 2.493603,-7.48189 3.299103,0.0736 3.299103,0.0736 3.765121,11.37709 c 2.070814,6.25739 3.771628,11.52994 3.779578,11.71676 0.0111,0.26067 -0.64212,0.32221 -2.808298,0.26459 l -2.822744,-0.0751 -0.773549,-2.32222 -0.773552,-2.32222 -3.734205,0.0733 -3.734207,0.0733 -0.71501,2.24896 -0.715013,2.24896 -2.91021,0.0746 -2.910213,0.0746 z m 11.677001,-5.82927 c -1.007372,-3.23003 -1.836634,-5.66492 -1.985277,-5.8292 -0.102912,-0.11374 -0.580408,1.07688 -1.061101,2.64583 -0.480692,1.56895 -0.930198,3.00147 -0.9989,3.18337 -0.09351,0.24759 0.412187,0.33073 2.011757,0.33073 1.587958,0 2.110182,-0.0849 2.033521,-0.33073 z m 9.708177,-1.71979 0.0689,-11.84011 h 3.03405 3.03404 l 3.44825,6.29336 3.44825,6.29335 0.0709,-6.36812 0.0709,-6.36812 2.97183,0.0748 2.97184,0.0748 0.0689,11.84853 0.0689,11.84852 -3.08724,-0.0746 -3.08725,-0.0746 -3.46392,-6.29392 -3.46392,-6.29392 -0.0709,6.36007 -0.0708,6.36006 h -3.04073 -3.04073 z m 23.72343,0.14078 3.90614,-11.71631 3.35142,-0.074 c 1.84328,-0.0407 3.35369,0.0188 3.35646,0.1323 0.003,0.11348 1.71532,5.41532 3.80566,11.78186 l 3.80062,11.57552 h -2.85756 -2.85757 l -0.77171,-2.3151 -0.7717,-2.31511 h -3.77205 -3.77206 l -0.71535,2.24896 -0.71535,2.24896 -2.94655,0.0746 -2.94655,0.0746 z m 9.21777,1.57901 c -0.0687,-0.1819 -0.51821,-1.61442 -0.9989,-3.18337 -0.48069,-1.56895 -0.95822,-2.75957 -1.06117,-2.64583 -0.16075,0.17761 -0.50144,1.17953 -1.84719,5.43232 l -0.23025,0.72761 h 2.13121 c 1.5952,0 2.0998,-0.0832 2.0063,-0.33073 z"
         id="path1151"
         inkscape:connector-curvature="0" />
      <path
         style="fill:#2c2c2c;stroke-width:0.26458332"
         d="M 18.350742,196.08035 V 184.1741 l 5.490104,0.003 c 6.486599,0.003 7.060405,0.0784 8.858834,1.15697 1.971241,1.18222 2.893548,2.77396 3.047396,5.25926 0.108362,1.75051 0.04823,2.04802 -0.699142,3.45919 l -0.817701,1.54395 0.831426,0.83143 c 2.688797,2.68879 2.354944,7.82109 -0.650373,9.99813 -1.895714,1.37325 -3.083462,1.56066 -9.890858,1.56066 h -6.169686 z m 12.622554,6.28385 c 0.550368,-0.55091 0.726878,-0.9846 0.726878,-1.78593 0,-0.80134 -0.17651,-1.23502 -0.726878,-1.78594 -0.699691,-0.70039 -0.845436,-0.73091 -3.896591,-0.81591 l -3.169713,-0.0883 v 2.69015 2.69015 l 3.169713,-0.0883 c 3.051155,-0.085 3.1969,-0.11552 3.896591,-0.81591 z m -1.086721,-9.03552 c 0.989936,-0.98993 1.136958,-1.84266 0.522551,-3.03079 -0.547287,-1.05834 -1.467148,-1.36129 -4.133333,-1.36129 h -2.368801 v 2.64583 2.64584 h 2.54 c 2.53585,0 2.54147,-0.001 3.439583,-0.89959 z m 7.315185,14.32719 c 0.06722,-0.1819 1.835091,-5.48018 3.928605,-11.77396 l 3.80639,-11.44323 h 3.234672 3.234671 l 3.748098,11.44323 c 2.061451,6.29378 3.804547,11.59206 3.873545,11.77396 0.09559,0.252 -0.559681,0.33073 -2.752788,0.33073 h -2.878236 l -0.724913,-2.38125 -0.724911,-2.38125 h -3.783721 -3.783721 l -0.761001,2.38125 -0.761,2.38125 h -2.888953 c -2.199956,0 -2.859806,-0.0789 -2.766737,-0.33073 z m 12.974827,-9.39271 c 0.05889,-0.10914 -0.369509,-1.68672 -0.952002,-3.50573 l -1.059077,-3.30729 -1.008081,3.04271 c -0.554445,1.67349 -1.011986,3.25107 -1.016759,3.50573 -0.0075,0.40026 0.258159,0.46302 1.960083,0.46302 1.082818,0 2.016945,-0.0893 2.075836,-0.19844 z m 9.713738,-2.18281 V 184.1741 h 3.014615 3.014615 l 3.362354,6.15156 c 1.849292,3.38336 3.46928,6.26467 3.599969,6.40292 0.140808,0.14895 0.237614,-2.35721 0.237614,-6.15156 v -6.40292 h 2.910417 2.910416 v 11.91492 11.91491 l -2.975551,-0.0748 -2.97555,-0.0748 -3.440596,-6.26581 -3.440594,-6.2658 -0.07085,6.33195 -0.07085,6.33195 H 62.92833 59.890326 Z m 23.790085,0.19844 3.903718,-11.70782 h 3.259836 3.259836 l 3.78878,11.50938 c 2.08383,6.33016 3.79174,11.6027 3.79535,11.71676 0.004,0.11407 -1.26994,0.1736 -2.830113,0.1323 l -2.836677,-0.0751 -0.691891,-2.24896 -0.691888,-2.24896 -3.817236,-0.0729 -3.817236,-0.0729 -0.726956,2.38797 -0.726956,2.38796 h -2.886144 -2.886141 z m 9.115647,1.97468 c 0.14914,-0.24131 -1.727615,-6.40645 -1.950217,-6.40645 -0.167045,0 -2.115931,5.79876 -2.115931,6.29579 0,0.36188 3.846195,0.46656 4.066148,0.11066 z m 9.956773,-2.18179 v -11.91491 l 2.94541,0.0748 2.94542,0.0748 3.47073,6.32188 3.47073,6.32187 0.0708,-6.38802 0.0709,-6.38802 h 2.90571 2.90571 v 11.91492 11.91491 l -2.94456,-0.0748 -2.94456,-0.0748 -3.47158,-6.34065 -3.47159,-6.34065 -0.0709,6.4068 -0.0708,6.40679 h -2.90571 -2.90571 z m 19.84999,11.72543 c 0.003,-0.11406 1.70738,-5.3866 3.78655,-11.71676 l 3.78029,-11.50938 3.29106,-0.0639 3.29106,-0.0639 3.87582,11.77174 3.87582,11.77174 h -2.86158 -2.86158 l -0.77171,-2.3151 -0.7717,-2.31511 h -3.80256 -3.80257 l -0.68463,2.24896 -0.68464,2.24896 -2.83294,0.0751 c -1.55811,0.0413 -2.83012,-0.0182 -2.82669,-0.1323 z m 12.95834,-9.6543 c 0,-0.48357 -1.94665,-6.296 -2.10807,-6.2944 -0.21928,0.002 -2.10553,6.16649 -1.9593,6.40308 0.22078,0.35724 4.06737,0.25446 4.06737,-0.10868 z"
         id="path1149"
         inkscape:connector-curvature="0" />
      <path
         style="fill:#000000;stroke-width:0.26458332"
         d="m 18.350742,196.07895 v -11.95436 l 6.151562,0.10428 c 7.115843,0.12062 7.682531,0.25953 9.554892,2.34204 2.190997,2.43692 2.339365,5.72868 0.382633,8.48925 -0.254911,0.35963 -0.124835,0.64351 0.750544,1.63799 2.317991,2.63338 2.300397,6.2498 -0.04309,8.85632 -1.936825,2.15421 -2.391794,2.26116 -10.115814,2.37788 l -6.680729,0.10096 z m 12.045935,6.82906 c 0.758294,-0.34551 1.447815,-1.45504 1.447815,-2.32974 0,-0.8747 -0.689521,-1.98424 -1.447815,-2.32974 -0.402967,-0.18361 -1.908426,-0.3161 -3.591718,-0.3161 h -2.897967 v 2.64584 2.64583 h 2.897967 c 1.683292,0 3.188751,-0.13249 3.591718,-0.31609 z m -1.114479,-8.97529 c 1.580079,-0.80806 1.99919,-2.80294 0.865895,-4.12147 -0.612977,-0.71317 -0.748221,-0.74591 -3.439583,-0.83259 l -2.801518,-0.0902 v 2.66992 2.66992 h 2.398644 c 1.319254,0 2.658707,-0.133 2.976562,-0.29555 z m 11.189454,4.06586 c 1.801037,-5.49341 3.53718,-10.79169 3.858097,-11.77396 l 0.583485,-1.78594 h 3.191372 3.191373 l 3.806391,11.44323 c 2.093513,6.29378 3.862988,11.59623 3.932163,11.78324 0.09861,0.26656 -0.491873,0.32371 -2.733789,0.26458 l -2.859563,-0.0754 -0.802156,-2.45431 -0.802156,-2.45431 -3.712334,0.0731 -3.712335,0.0731 -0.783761,2.44739 -0.783761,2.4474 h -2.82382 -2.823819 z m 9.893673,0.25219 c 0,-0.27679 -2.07473,-6.45001 -2.214845,-6.59013 -0.05937,-0.0594 -0.540068,1.26408 -1.068211,2.941 -0.528145,1.67693 -1.030284,3.23143 -1.115869,3.45446 -0.132361,0.34492 0.184589,0.4055 2.121659,0.4055 1.252498,0 2.277266,-0.0949 2.277266,-0.21083 z m 9.525,-2.04652 v -11.78236 l 3.090588,0.0745 3.090587,0.0745 3.268197,5.94868 c 1.797508,3.27178 3.383304,6.06379 3.523996,6.20448 0.164676,0.16468 0.255799,-1.97794 0.255799,-6.01482 v -6.27063 h 2.910417 2.910416 v 11.78263 11.78262 l -2.94428,-0.0748 -2.944281,-0.0748 -3.471865,-6.30963 -3.471865,-6.30964 -0.07085,6.37578 -0.07085,6.37578 H 62.92833 59.890326 Z m 23.789651,0.0745 3.903287,-11.70782 3.197256,-0.0741 3.197257,-0.0741 3.858358,11.60074 c 2.122096,6.38041 3.858356,11.68228 3.858356,11.78193 0,0.0996 -1.24034,0.18118 -2.756305,0.18118 H 96.18188 l -0.839759,-2.52066 -0.839758,-2.52066 -3.737158,0.0733 -3.73716,0.0733 -0.770223,2.44739 -0.770223,2.4474 h -2.855455 -2.855452 z m 9.283266,1.96192 c 0,-0.39713 -1.895568,-6.25607 -2.090923,-6.46275 -0.17069,-0.18059 -2.14241,5.70971 -2.14241,6.40022 0,0.17789 0.78818,0.28342 2.116666,0.28342 1.164167,0 2.116667,-0.0994 2.116667,-0.22089 z m 9.789588,-2.02807 v -11.77396 l 2.97656,0.005 2.97656,0.005 3.175,5.8428 c 1.74625,3.21353 3.32004,6.03908 3.49732,6.27899 0.25663,0.34732 0.32402,-0.84423 0.33072,-5.84765 l 0.008,-6.28386 h 2.91042 2.91041 v 11.77396 11.77396 h -2.87488 -2.87489 l -3.37088,-6.15156 c -1.85399,-3.38336 -3.47732,-6.26467 -3.60741,-6.40292 -0.13938,-0.14812 -0.23652,2.3783 -0.23652,6.15156 v 6.40292 h -2.91042 -2.91041 z m 19.84375,11.57556 c 0,-0.10913 1.73751,-5.41098 3.86114,-11.78191 l 3.86114,-11.5835 3.20895,0.0741 3.20895,0.0741 3.77782,11.50208 c 2.07781,6.32614 3.77783,11.59466 3.77783,11.70781 0,0.11316 -1.23501,0.20574 -2.74447,0.20574 h -2.74447 l -0.77022,-2.4474 -0.77023,-2.44739 -3.73716,-0.0733 -3.73716,-0.0733 -0.83975,2.52066 -0.83976,2.52066 h -2.75631 c -1.51597,0 -2.7563,-0.0893 -2.7563,-0.1984 z m 12.96458,-9.62914 c 0,-0.71235 -1.96245,-6.57108 -2.13868,-6.38483 -0.19791,0.20916 -2.09465,6.06467 -2.09465,6.46648 0,0.12149 0.9525,0.22089 2.11666,0.22089 1.41177,0 2.11667,-0.10075 2.11667,-0.30254 z"
         id="path1147"
         inkscape:connector-curvature="0" />
    </g>
    <g
       id="g1073"
       transform="translate(-2.6458333,-48.380952)">
      <path
         style="fill:#fefefe;stroke-width:0.26458332"
         d="M 13.62604,103.09821 V 91.191956 h 63.103125 63.103125 v 11.906254 11.90625 H 76.729165 13.62604 Z"
         id="path1089"
         inkscape:connector-curvature="0" />
      <path
         style="fill:#cecece;stroke-width:0.26458332"
         d="M 13.62604,103.09377 V 91.158418 l 6.548438,0.08291 c 7.187602,0.09101 7.340421,0.121854 9.04412,1.825553 1.430282,1.430282 1.985547,2.789786 1.994376,4.883 0.0065,1.531794 -0.123291,2.115919 -0.729591,3.284529 l -0.737449,1.4214 0.773974,0.81651 c 1.345048,1.41896 1.742868,2.47582 1.751442,4.65296 0.0088,2.2457 -0.419797,3.37436 -1.834875,4.83142 -1.78205,1.83492 -2.136743,1.90661 -9.865123,1.99394 l -6.945312,0.0785 z m 12.455769,6.11021 c 0.527843,-0.52785 0.773398,-1.03834 0.773398,-1.60786 0,-0.56951 -0.245555,-1.08001 -0.773398,-1.60785 -0.765734,-0.76573 -0.803748,-0.7734 -3.836458,-0.7734 H 19.18229 v 2.38125 2.38125 h 3.063061 c 3.03271,0 3.070724,-0.008 3.836458,-0.77339 z M 25.099335,100.284 c 0.944804,-0.944802 0.966666,-2.49697 0.04811,-3.415529 C 24.54412,96.26515 24.309297,96.219039 21.84015,96.219039 h -2.65786 v 2.38125 2.381251 h 2.609754 c 2.466956,0 2.647921,-0.0382 3.307291,-0.69754 z m 10.990743,3.02088 3.90608,-11.716049 3.42926,-0.07345 3.429262,-0.07345 0.585835,1.793238 c 0.32221,0.986281 2.060612,6.291518 3.863115,11.789411 l 3.27728,9.99618 -3.058377,-0.0743 -3.058377,-0.0743 -0.691917,-2.24895 -0.691915,-2.24896 -3.605784,-0.0735 -3.605781,-0.0735 -0.773678,2.32241 -0.773677,2.32241 -3.068704,0.0744 -3.068703,0.0744 z m 9.205896,1.55381 c -0.07517,-0.1959 -0.520652,-1.59488 -0.989951,-3.10885 l -0.853274,-2.752676 -0.370956,1.058336 c -0.204026,0.58208 -0.654611,1.98107 -1.001297,3.10885 l -0.630341,2.05052 h 1.991249 c 1.56019,0 1.961663,-0.0771 1.85457,-0.35618 z m 9.869649,-1.76048 V 91.191956 l 3.108855,5.26e-4 3.108854,5.25e-4 3.307291,6.051058 3.307292,6.051055 0.07102,-6.051581 0.07102,-6.051583 h 3.170124 3.170124 v 11.906254 11.90625 h -3.159419 -3.159416 l -3.389022,-6.15157 -3.389018,-6.15156 -0.07102,6.15156 -0.07102,6.15157 h -3.037832 -3.037832 z m 19.84375,11.70784 c 0,-0.10912 1.736323,-5.4074 3.858496,-11.77396 l 3.858495,-11.575551 h 3.400341 3.400337 l 3.727884,11.372411 c 2.050336,6.25482 3.797224,11.5531 3.881972,11.77395 0.132308,0.34479 -0.279622,0.40156 -2.913959,0.40156 h -3.06805 l -0.724911,-2.38125 -0.724913,-2.38125 h -3.616381 -3.616381 l -0.730461,2.38125 -0.730462,2.38125 h -3.001002 c -1.650553,0 -3.001005,-0.0893 -3.001005,-0.19841 z m 12.895842,-10.0542 c -0.646554,-2.29473 -1.66851,-5.357811 -1.787564,-5.357811 -0.165971,0 -1.847861,5.009361 -1.847861,5.503681 0,0.21677 0.595979,0.31715 1.882942,0.31715 1.666589,0 1.867953,-0.0532 1.752483,-0.46302 z m 9.858325,-1.65364 V 91.191956 h 3.14147 3.14148 l 3.27467,5.970529 3.27467,5.970525 0.0711,-5.970525 0.0711,-5.970529 h 3.17003 3.17003 v 11.906254 11.90625 h -3.13157 -3.13157 l -3.28458,-5.98447 -3.28457,-5.98447 -0.0711,5.98447 -0.0711,5.98447 h -3.17003 -3.17003 z m 19.92898,11.5366 c 0.078,-0.2033 1.82407,-5.50499 3.88013,-11.78153 l 3.73829,-11.411886 3.44043,0.07372 3.44041,0.07372 3.81708,11.509376 c 2.09939,6.33015 3.8185,11.59867 3.82025,11.70781 0.002,0.10914 -1.34364,0.19844 -2.98976,0.19844 h -2.99294 l -0.761,-2.38125 -0.76099,-2.38125 h -3.60724 -3.60723 l -0.71281,2.38125 -0.71282,2.38125 h -3.06682 c -2.51695,0 -3.04139,-0.0663 -2.92498,-0.36965 z m 12.13576,-12.33035 c -0.52884,-1.60073 -1.02436,-2.908629 -1.10115,-2.90644 -0.11398,0.0032 -1.27982,3.48262 -1.79393,5.35383 -0.11298,0.41124 0.0956,0.46302 1.8647,0.46302 h 1.99191 z"
         id="path1087"
         inkscape:connector-curvature="0" />
      <path
         style="fill:#adadad;stroke-width:0.26458332"
         d="M 13.62604,103.09821 V 91.191956 l 6.151562,0.0026 c 5.887287,0.0025 6.208397,0.02911 7.47448,0.61994 3.52127,1.643244 5.012916,5.823757 3.285873,9.209044 -0.275103,0.53925 -0.623498,1.05666 -0.774212,1.14981 -0.160596,0.0992 0.160493,0.66299 0.77569,1.36189 3.192248,3.62659 2.046131,8.92652 -2.36131,10.91929 -1.095128,0.49515 -1.726468,0.53879 -7.871354,0.54414 l -6.680729,0.006 z m 12.579735,6.22973 c 0.90249,-0.90249 0.90249,-2.56115 0,-3.46364 -0.617634,-0.61763 -0.80548,-0.64943 -3.836458,-0.64943 H 19.18229 v 2.38125 2.38125 h 3.187027 c 3.030978,0 3.218824,-0.0318 3.836458,-0.64943 z m -1.228315,-8.80942 c 1.214543,-1.000415 1.099031,-3.318848 -0.199994,-4.014065 -0.293318,-0.156978 -1.672226,-0.285416 -3.06424,-0.285416 H 19.18229 v 2.38125 2.381251 h 2.616522 c 2.101393,0 2.72719,-0.0912 3.178648,-0.46302 z m 7.436742,14.29616 c 0.0015,-0.1139 1.702143,-5.38632 3.779185,-11.71647 l 3.776439,-11.509379 h 3.40829 3.408288 l 3.903718,11.707809 3.903718,11.70782 h -2.999351 -2.999351 l -0.771702,-2.31511 -0.771702,-2.3151 H 43.381463 39.71119 l -0.684669,2.24896 -0.684669,2.24895 -2.965198,0.0748 c -1.630858,0.0411 -2.963962,-0.0184 -2.962452,-0.1323 z m 12.961838,-9.78631 c 0,-0.10257 -0.441759,-1.52872 -0.981686,-3.16922 l -0.981686,-2.982722 -0.997535,3.103072 c -0.548645,1.7067 -0.999855,3.13285 -1.002689,3.16923 -0.0028,0.0364 0.887815,0.0661 1.979221,0.0661 1.091406,0 1.984375,-0.0839 1.984375,-0.1865 z m 9.789583,-1.93016 V 91.191956 l 3.108855,0.01052 3.108854,0.01052 3.307291,6.072105 3.307292,6.072109 0.07102,-6.08263 0.07102,-6.082625 h 3.170124 3.170124 v 11.906255 11.90625 h -3.141454 -3.141456 l -3.406981,-6.21121 -3.406984,-6.2112 -0.07094,6.2112 -0.07093,6.21121 h -3.037919 -3.03792 z m 19.84375,11.70784 c 0,-0.10912 1.736323,-5.4074 3.858496,-11.77396 l 3.858495,-11.575551 h 3.354081 3.35408 l 3.284427,9.855731 c 1.806432,5.42065 3.552182,10.71893 3.87944,11.77396 l 0.595013,1.91823 h -2.972453 -2.972454 l -0.761,-2.38125 -0.761,-2.38125 h -3.651429 -3.65143 l -0.724911,2.38125 -0.724913,2.38125 h -2.98222 c -1.640223,0 -2.982222,-0.0893 -2.982222,-0.19841 z m 12.964584,-9.8526 c 0,-0.4168 -1.620642,-5.406155 -1.828142,-5.628164 -0.103348,-0.110575 -0.611825,1.169344 -1.129948,2.844274 l -0.942038,3.04531 h 1.950064 c 1.107919,0 1.950064,-0.11289 1.950064,-0.26142 z m 9.789583,-1.85524 V 91.191956 h 3.11132 3.11132 l 3.43711,6.258549 3.43713,6.258545 0.0709,-6.258545 0.0709,-6.258549 h 3.03792 3.03792 v 11.906254 11.90625 l -3.10885,-0.003 -3.10885,-0.003 -3.37292,-6.14808 -3.37291,-6.14807 -5.3e-4,6.15156 -5.2e-4,6.15157 h -3.175 -3.175 z m 19.90935,11.57552 c 0.0672,-0.1819 1.83509,-5.48019 3.92861,-11.77396 l 3.80639,-11.443231 h 3.36755 3.36756 l 3.67383,11.178651 c 2.0206,6.14825 3.75872,11.44653 3.86247,11.77395 0.18806,0.59345 0.17927,0.59532 -2.8114,0.59532 h -3.00005 l -0.72491,-2.38125 -0.72492,-2.38125 h -3.65143 -3.65143 l -0.76099,2.38125 -0.761,2.38125 h -3.02125 c -2.30579,0 -2.9923,-0.0783 -2.89903,-0.33073 z m 12.15291,-12.50417 c -0.51813,-1.67493 -1.02764,-2.954849 -1.13226,-2.844274 -0.19084,0.201705 -1.82583,5.288584 -1.82583,5.680634 0,0.11492 0.87752,0.20895 1.95006,0.20895 h 1.95006 z"
         id="path1085"
         inkscape:connector-curvature="0" />
      <path
         style="fill:#8e8e8e;stroke-width:0.26458332"
         d="M 13.62604,103.11422 V 91.191956 l 5.886979,0.0015 c 3.237839,8.11e-4 6.317704,0.121118 6.844144,0.267349 4.204454,1.167882 6.244381,6.56291 3.82792,10.123765 l -0.597918,0.88108 1.015053,1.14382 c 1.007565,1.13538 1.809239,3.13635 1.809239,4.51584 0,2.2795 -1.502875,4.75294 -3.6575,6.01953 l -1.237292,0.72734 -6.945313,0.0822 -6.945312,0.0822 z m 12.579735,6.21372 c 0.90249,-0.90249 0.90249,-2.56115 0,-3.46364 -0.617634,-0.61763 -0.80548,-0.64943 -3.836458,-0.64943 H 19.18229 v 2.38125 2.38125 h 3.187027 c 3.030978,0 3.218824,-0.0318 3.836458,-0.64943 z m -1.052557,-8.95606 c 0.975691,-0.839252 1.037943,-2.508411 0.129612,-3.475284 -0.603294,-0.642177 -0.779186,-0.677557 -3.368536,-0.677557 H 19.18229 v 2.38125 2.381251 h 2.631079 c 2.365417,0 2.702644,-0.0616 3.339849,-0.60966 z m 7.258239,14.43417 c 0,-0.10912 1.737481,-5.41088 3.861069,-11.78168 l 3.86107,-11.583273 3.340569,0.07387 3.340571,0.07387 3.762182,11.377083 c 2.0692,6.2574 3.769555,11.52592 3.778567,11.70782 0.01217,0.2455 -0.732507,0.33073 -2.889837,0.33073 h -2.906223 l -0.714902,-2.38822 -0.714899,-2.38821 -3.699356,0.0731 -3.699358,0.0731 -0.771358,2.3151 -0.771359,2.31511 h -2.888368 c -1.588603,0 -2.888368,-0.0893 -2.888368,-0.19841 z M 45.37604,105.0581 c 0,-0.0862 -0.439677,-1.54474 -0.977061,-3.24115 l -0.977062,-3.084369 -0.879337,2.778129 c -0.483634,1.52796 -0.944951,2.98648 -1.025144,3.24114 -0.130061,0.41303 0.07038,0.46302 1.856399,0.46302 1.101214,0 2.002205,-0.0706 2.002205,-0.15677 z m 9.789583,-1.96829 V 91.175163 l 3.090908,0.07454 3.090907,0.07454 3.325239,6.046122 3.325238,6.046115 0.07104,-6.120615 0.07104,-6.120623 3.103956,0.0745 3.103957,0.0745 0.06887,11.840098 0.06887,11.84011 h -3.128907 -3.128906 l -3.422256,-6.25508 -3.422253,-6.25508 -0.07094,6.25508 -0.07093,6.25508 h -3.037919 -3.03792 z m 19.93037,11.54138 c 0.08256,-0.21515 1.838359,-5.51746 3.901773,-11.78292 l 3.751662,-11.391731 h 3.35066 3.350659 l 3.857138,11.773961 3.857141,11.77396 h -2.958264 -2.958264 l -0.76322,-2.3882 -0.763222,-2.3882 -3.676306,0.0731 -3.676306,0.0731 -0.715013,2.24896 -0.715012,2.24895 -2.996769,0.0751 c -2.555743,0.0641 -2.974679,0.0175 -2.846657,-0.31608 z m 12.120898,-12.45286 c -0.5295,-1.67009 -1.033177,-3.03931 -1.119283,-3.042704 -0.08611,-0.0034 -0.294259,0.440314 -0.46256,0.986014 -0.168302,0.54571 -0.594648,1.91493 -0.947439,3.04271 l -0.641434,2.05052 h 2.066721 2.066721 z m 10.546649,0.91988 V 91.191956 l 3.10885,0.006 3.10886,0.006 3.43958,6.277884 3.43959,6.27788 0.0709,-6.28385 0.0709,-6.283854 h 3.03792 3.03792 v 11.906254 11.90625 l -3.10885,-0.006 -3.10885,-0.006 -3.175,-5.84238 c -1.74625,-3.2133 -3.32005,-6.03816 -3.49732,-6.27746 -0.25661,-0.34638 -0.32403,0.84597 -0.33073,5.84877 l -0.008,6.28386 h -3.04271 -3.04271 z m 22.33974,4.43177 c 1.34022,-4.11097 3.08028,-9.409248 3.8668,-11.773961 l 1.43004,-4.29948 h 3.34606 3.34606 l 3.75166,11.391731 c 2.06341,6.26546 3.81921,11.56777 3.90177,11.78292 0.12801,0.33358 -0.28974,0.38013 -2.83664,0.31608 l -2.98675,-0.0751 -0.77121,-2.3151 -0.77121,-2.3151 H 128.71 125.04014 l -0.71464,2.38125 -0.71464,2.38125 h -2.97216 -2.97216 z m 10.36486,-3.43959 c -0.91186,-2.9893 -1.60177,-4.96035 -1.73428,-4.954764 -0.0805,0.0034 -0.57959,1.372614 -1.10909,3.042704 l -0.96272,3.03654 h 2.07455 2.07455 z"
         id="path1083"
         inkscape:connector-curvature="0" />
      <path
         style="fill:#6f6f6f;stroke-width:0.26458332"
         d="M 13.62604,103.09821 V 91.191956 h 5.905992 c 6.625778,0 7.559445,0.171625 9.371461,1.722642 2.444575,2.092466 2.976208,6.263317 1.129007,8.857472 -0.51367,0.72138 -0.513665,0.72145 0.1042,1.3019 0.339842,0.31927 0.955287,1.19947 1.367654,1.956 1.484165,2.72288 0.826282,6.22423 -1.551996,8.25995 -1.782585,1.52582 -2.885922,1.71454 -10.02434,1.71454 H 13.62604 Z m 11.76116,6.76927 c 1.065628,-0.44525 1.468007,-1.10261 1.468007,-2.39828 0,-0.66167 -0.199696,-1.15516 -0.649432,-1.6049 -0.617634,-0.61763 -0.80548,-0.64943 -3.836458,-0.64943 H 19.18229 v 2.51354 2.51355 h 2.654331 c 1.690296,0 2.979843,-0.13601 3.550579,-0.37448 z m -0.188174,-9.49074 c 1.001432,-1.001436 1.001432,-2.551465 0,-3.552897 -0.666708,-0.666708 -0.907758,-0.725729 -3.367424,-0.824523 L 19.18229,95.89291 v 2.707379 2.707381 l 2.649312,-0.10641 c 2.459666,-0.0988 2.700716,-0.15782 3.367424,-0.82452 z m 7.212431,14.42931 c 0,-0.10912 1.737481,-5.41088 3.861069,-11.78168 l 3.86107,-11.583273 3.320773,0.07387 3.320774,0.07387 3.79199,11.509383 c 2.085594,6.33015 3.794858,11.59867 3.798367,11.70781 0.0035,0.10914 -1.280917,0.19844 -2.854273,0.19844 h -2.860645 l -0.761,-2.38125 -0.761,-2.38125 h -3.726201 -3.726199 l -0.724912,2.38125 -0.724912,2.38125 h -2.907451 c -1.599098,0 -2.90745,-0.0893 -2.90745,-0.19841 z m 12.964583,-9.81207 c 0,-0.12148 -0.43312,-1.58 -0.962488,-3.24114 l -0.962491,-3.020259 -1.021884,3.033919 c -0.562039,1.66866 -1.021887,3.12717 -1.021887,3.24115 0,0.11397 0.892969,0.20722 1.984375,0.20722 1.091406,0 1.984375,-0.0994 1.984375,-0.22089 z m 9.789583,-1.90417 V 91.175163 l 3.079054,0.07454 3.079055,0.07454 3.240389,5.909339 c 1.782215,3.250138 3.373202,6.042148 3.535529,6.204478 0.21713,0.21713 0.29514,-1.36226 0.29514,-5.975484 v -6.270625 h 2.910417 2.910416 v 11.906259 11.90625 l -2.976562,-10e-4 -2.976563,-0.001 -3.439583,-6.27638 -3.439583,-6.27638 -0.07094,6.27771 -0.07093,6.2777 h -3.037919 -3.03792 z m 19.905912,11.59288 c 0.06911,-0.18683 1.838531,-5.48915 3.932044,-11.78292 l 3.806391,-11.443231 3.309596,0.0105 3.309599,0.0105 3.878405,11.763461 3.878406,11.76346 h -2.958023 -2.958021 l -0.727115,-2.38849 -0.727114,-2.38848 -3.753633,0.0734 -3.753636,0.0734 -0.684332,2.24896 -0.684334,2.24895 -2.996943,0.0751 c -2.35235,0.059 -2.969919,0.002 -2.87129,-0.26458 z m 12.21537,-12.30837 c -0.490458,-1.5623 -0.964493,-3.020819 -1.053412,-3.241145 -0.09337,-0.231353 -0.596035,0.940765 -1.189823,2.774405 -0.565486,1.74625 -1.030476,3.20477 -1.033309,3.24115 -0.0028,0.0364 0.93387,0.0661 2.081569,0.0661 h 2.086722 z m 10.476635,0.71549 V 91.175163 l 3.10885,0.07454 3.10886,0.07454 3.30729,6.002195 c 1.81901,3.301212 3.39659,6.089262 3.50573,6.195652 0.10914,0.10641 0.19844,-2.62435 0.19844,-6.068333 v -6.261806 h 3.04271 3.0427 v 11.914639 11.91465 l -3.10547,-0.0745 -3.10547,-0.0746 -3.31068,-6.00324 c -1.82087,-3.30178 -3.39997,-6.08983 -3.50911,-6.19566 -0.10914,-0.10583 -0.19843,2.6254 -0.19843,6.06939 v 6.26181 h -3.04271 -3.04271 z m 23.78968,0.20683 3.90331,-11.707809 3.28528,-0.07351 3.28527,-0.07351 3.8087,11.450599 c 2.09478,6.29783 3.86524,11.60346 3.93435,11.79029 0.0986,0.26664 -0.51963,0.32354 -2.87503,0.26458 l -3.00068,-0.0751 -0.69191,-2.24895 -0.6919,-2.24896 -3.74232,-0.0734 -3.74233,-0.0734 -0.72711,2.38848 -0.72712,2.38849 h -2.96091 -2.96091 z m 9.27752,1.85209 c -0.003,-0.0364 -0.46537,-1.4949 -1.02718,-3.24115 -0.58313,-1.81249 -1.09052,-3.004685 -1.18237,-2.778124 -0.0885,0.218281 -0.5647,1.676794 -1.05826,3.241144 l -0.89737,2.84427 h 2.08545 c 1.14699,0 2.08287,-0.0298 2.07973,-0.0661 z"
         id="path1081"
         inkscape:connector-curvature="0" />
      <path
         style="fill:#4d4d4d;stroke-width:0.26458332"
         d="M 13.62604,103.11447 V 91.191956 h 5.772811 c 4.31368,0 6.10261,0.09839 7.077604,0.389275 3.957014,1.180546 5.774554,5.698211 3.837496,9.538449 l -0.774589,1.53564 0.625936,0.49236 c 0.344266,0.2708 0.953009,1.16087 1.352764,1.97794 1.658141,3.38912 0.410133,7.28101 -2.893324,9.0228 l -1.372656,0.72374 -6.813021,0.0824 -6.813021,0.0824 z m 11.756613,6.8695 c 0.373208,-0.1419 0.921361,-0.64791 1.218117,-1.12448 0.664029,-1.06639 0.514237,-2.18091 -0.418718,-3.11545 -0.618744,-0.6198 -0.859986,-0.66702 -3.830049,-0.74976 l -3.169713,-0.0883 v 2.66799 2.668 h 2.760901 c 1.518495,0 3.066253,-0.1161 3.439462,-0.25799 z m -0.09282,-9.73421 c 1.011258,-1.132418 1.011258,-2.166524 0,-3.298942 -0.761225,-0.852429 -0.807563,-0.865295 -3.439583,-0.955009 l -2.667963,-0.09094 v 2.69542 2.695421 l 2.667963,-0.0909 c 2.63202,-0.0897 2.678358,-0.10258 3.439583,-0.95501 z m 7.222754,14.34361 c 0.08676,-0.2261 1.836165,-5.52438 3.887561,-11.77396 l 3.729813,-11.362871 h 3.262458 3.26246 l 3.858496,11.575551 c 2.122173,6.36656 3.858495,11.66484 3.858495,11.77396 0,0.10912 -1.28729,0.19841 -2.860646,0.19841 h -2.860645 l -0.761,-2.38125 -0.761,-2.38125 H 43.382814 39.63705 l -0.714639,2.38125 -0.714638,2.38125 h -2.926468 c -2.537565,0 -2.905503,-0.0546 -2.768718,-0.41109 z M 44.590331,102.1632 c -0.547857,-1.67842 -1.061681,-3.117246 -1.141833,-3.197398 -0.122254,-0.122253 -2.041208,5.600758 -2.041208,6.087618 0,0.0888 0.940308,0.16145 2.089573,0.16145 h 2.089574 z m 10.575292,0.92661 V 91.175163 l 3.062608,0.07454 3.06261,0.07454 3.485827,6.35 3.48583,6.349997 0.07085,-6.416143 0.07085,-6.416146 h 2.905712 2.905712 v 11.906249 11.90625 l -2.976562,-0.004 -2.976563,-0.004 -3.439583,-6.31325 -3.439583,-6.31325 -0.07085,6.31753 -0.07085,6.31754 h -3.038004 -3.038004 z m 21.27616,7.6236 c 0.760896,-2.36935 2.505567,-7.67477 3.87705,-11.789811 l 2.493603,-7.481898 3.299103,0.07357 3.299103,0.07357 3.765121,11.377079 c 2.070814,6.2574 3.771625,11.52994 3.779573,11.71677 0.01109,0.26067 -0.642117,0.32221 -2.808293,0.26458 l -2.822744,-0.0751 -0.773549,-2.32222 -0.773552,-2.32222 -3.734205,0.0733 -3.734207,0.0733 -0.71501,2.24896 -0.715013,2.24895 -2.91021,0.0746 -2.910213,0.0746 z m 11.677001,-5.82927 c -1.007372,-3.23002 -1.836634,-5.664911 -1.985277,-5.829195 -0.102912,-0.113741 -0.580408,1.076885 -1.061101,2.645835 -0.480692,1.56895 -0.930198,3.00146 -0.9989,3.18336 -0.09351,0.2476 0.412187,0.33073 2.011757,0.33073 1.587958,0 2.110182,-0.0849 2.033521,-0.33073 z m 9.708177,-1.71979 0.06887,-11.840102 h 3.034039 3.03405 l 3.44825,6.293353 3.44825,6.293359 0.0709,-6.368126 0.0709,-6.36812 2.97184,0.07477 2.97184,0.07477 0.0689,11.848526 0.0689,11.84853 -3.08725,-0.0746 -3.08724,-0.0746 -3.46392,-6.29391 -3.46392,-6.29392 -0.0709,6.36006 -0.0708,6.36007 h -3.04073 -3.040729 z m 23.723429,0.14079 3.90614,-11.716309 3.35142,-0.07405 c 1.84328,-0.04073 3.35369,0.0188 3.35646,0.132292 0.003,0.113488 1.71532,5.415327 3.80566,11.781867 l 3.80062,11.57552 h -2.85757 -2.85757 l -0.7717,-2.31511 -0.7717,-2.3151 h -3.77205 -3.77206 l -0.71535,2.24896 -0.71535,2.24895 -2.94655,0.0746 -2.94655,0.0746 z m 9.21777,1.579 c -0.0687,-0.1819 -0.51821,-1.61441 -0.9989,-3.18336 -0.4807,-1.56895 -0.95822,-2.759576 -1.06117,-2.645835 -0.16075,0.177613 -0.50144,1.179525 -1.8472,5.432325 l -0.23024,0.7276 h 2.13121 c 1.5952,0 2.0998,-0.0832 2.0063,-0.33073 z"
         id="path1079"
         inkscape:connector-curvature="0" />
      <path
         style="fill:#2c2c2c;stroke-width:0.26458332"
         d="M 13.62604,103.09821 V 91.191956 l 5.490104,0.0029 c 6.486599,0.0034 7.060405,0.07838 8.858834,1.156964 1.971241,1.182226 2.893548,2.773963 3.047396,5.259262 0.108362,1.750515 0.04823,2.048026 -0.699142,3.459188 l -0.817701,1.54396 0.831426,0.83142 c 2.688797,2.6888 2.354944,7.82109 -0.650373,9.99814 -1.895714,1.37324 -3.083462,1.56066 -9.890858,1.56066 H 13.62604 Z m 12.622554,6.28385 c 0.550368,-0.55092 0.726878,-0.9846 0.726878,-1.78594 0,-0.80133 -0.17651,-1.23502 -0.726878,-1.78593 -0.699691,-0.70039 -0.845436,-0.73091 -3.896591,-0.81591 l -3.169713,-0.0883 v 2.69015 2.69015 l 3.169713,-0.0883 c 3.051155,-0.085 3.1969,-0.11552 3.896591,-0.81591 z m -1.086721,-9.03552 c 0.989936,-0.989936 1.136958,-1.842664 0.522551,-3.030796 -0.547287,-1.058338 -1.467148,-1.361288 -4.133333,-1.361288 H 19.18229 v 2.645833 2.645831 h 2.54 c 2.53585,0 2.54147,-0.001 3.439583,-0.89958 z m 7.315185,14.32719 c 0.06722,-0.1819 1.835091,-5.48019 3.928605,-11.77396 l 3.80639,-11.443231 h 3.234672 3.234671 l 3.748098,11.443231 c 2.061451,6.29377 3.804547,11.59206 3.873545,11.77396 0.09559,0.252 -0.559681,0.33073 -2.752788,0.33073 h -2.878236 l -0.724913,-2.38125 -0.724911,-2.38125 H 43.43847 39.654749 l -0.761001,2.38125 -0.761,2.38125 h -2.888953 c -2.199956,0 -2.859806,-0.0789 -2.766737,-0.33073 z m 12.974827,-9.39271 c 0.05889,-0.10914 -0.369509,-1.68672 -0.952002,-3.50573 l -1.059077,-3.307292 -1.008081,3.042712 c -0.554445,1.67349 -1.011986,3.25106 -1.016759,3.50573 -0.0075,0.40026 0.258159,0.46302 1.960083,0.46302 1.082818,0 2.016945,-0.0893 2.075836,-0.19844 z m 9.713738,-2.18281 V 91.191956 h 3.014615 3.014615 l 3.362354,6.151563 c 1.849292,3.383361 3.46928,6.264671 3.599969,6.402921 0.140808,0.14895 0.237614,-2.35722 0.237614,-6.151567 v -6.402917 h 2.910417 2.910416 v 11.914914 11.91492 l -2.975551,-0.0748 -2.97555,-0.0748 -3.440596,-6.2658 -3.440594,-6.2658 -0.07085,6.33195 -0.07085,6.33195 h -3.038004 -3.038004 z m 23.790085,0.19843 3.903718,-11.707809 h 3.259836 3.259836 l 3.78878,11.509379 c 2.08383,6.33015 3.791736,11.6027 3.795348,11.71676 0.0036,0.11406 -1.269939,0.17359 -2.830111,0.13229 l -2.836677,-0.0751 -0.691891,-2.24895 -0.691888,-2.24896 -3.817236,-0.0729 -3.817236,-0.0729 -0.726956,2.38796 -0.726956,2.38797 H 77.938131 75.05199 Z m 9.115647,1.97469 c 0.14914,-0.24132 -1.727615,-6.406457 -1.950217,-6.406457 -0.167045,0 -2.115931,5.798757 -2.115931,6.295787 0,0.36189 3.846195,0.46656 4.066148,0.11067 z m 9.956768,-2.18179 V 91.174625 l 2.945417,0.07481 2.94541,0.07481 3.47073,6.321876 3.47074,6.321879 0.0708,-6.388025 0.0709,-6.388022 h 2.90571 2.90571 v 11.914917 11.91492 l -2.94456,-0.0748 -2.94456,-0.0748 -3.47158,-6.34064 -3.47159,-6.34065 -0.0709,6.40679 -0.0708,6.4068 h -2.90571 -2.905717 z m 19.849997,11.72543 c 0.003,-0.11406 1.70738,-5.38661 3.78654,-11.71676 l 3.7803,-11.509379 3.29106,-0.06393 3.29106,-0.06393 3.87582,11.771739 3.87581,11.77175 h -2.86158 -2.86158 l -0.7717,-2.31511 -0.7717,-2.3151 h -3.80256 -3.80257 l -0.68463,2.24896 -0.68464,2.24895 -2.83294,0.0751 c -1.55811,0.0413 -2.83013,-0.0182 -2.82669,-0.13229 z m 12.95834,-9.65431 c 0,-0.48357 -1.94665,-6.295991 -2.10807,-6.294391 -0.21928,0.0022 -2.10553,6.166491 -1.95931,6.403081 0.22079,0.35724 4.06738,0.25446 4.06738,-0.10869 z"
         id="path1077"
         inkscape:connector-curvature="0" />
      <path
         style="fill:#000000;stroke-width:0.26458332"
         d="M 13.62604,103.09681 V 91.142445 l 6.151562,0.104279 c 7.115843,0.120625 7.682531,0.259529 9.554892,2.342045 2.190997,2.436916 2.339365,5.728675 0.382633,8.489251 -0.254911,0.35963 -0.124835,0.64351 0.750544,1.63799 2.317991,2.63338 2.300397,6.24979 -0.04309,8.85631 -1.936825,2.15422 -2.391794,2.26117 -10.115814,2.37789 l -6.680729,0.10096 z m 12.045935,6.82905 c 0.758294,-0.3455 1.447815,-1.45504 1.447815,-2.32974 0,-0.8747 -0.689521,-1.98423 -1.447815,-2.32974 -0.402967,-0.1836 -1.908426,-0.31609 -3.591718,-0.31609 H 19.18229 v 2.64583 2.64584 h 2.897967 c 1.683292,0 3.188751,-0.13249 3.591718,-0.3161 z m -1.114479,-8.97529 c 1.580079,-0.80806 1.99919,-2.80293 0.865895,-4.121464 C 24.810414,96.115937 24.67517,96.0832 21.983808,95.996518 l -2.801518,-0.09023 v 2.669917 2.669915 h 2.398644 c 1.319254,0 2.658707,-0.13299 2.976562,-0.29555 z m 11.189454,4.06587 c 1.801037,-5.493416 3.53718,-10.791698 3.858097,-11.773963 l 0.583485,-1.785938 h 3.191372 3.191373 l 3.806391,11.443231 c 2.093513,6.29377 3.862988,11.59623 3.932163,11.78323 0.09861,0.26657 -0.491873,0.32371 -2.733789,0.26458 l -2.859563,-0.0754 -0.802156,-2.4543 -0.802156,-2.45431 -3.712334,0.0731 -3.712335,0.0731 -0.783761,2.4474 -0.783761,2.4474 h -2.82382 -2.823819 z m 9.893673,0.25219 c 0,-0.27679 -2.07473,-6.450016 -2.214845,-6.59013 -0.05937,-0.05937 -0.540068,1.264078 -1.06821,2.941 -0.528146,1.67692 -1.030285,3.23143 -1.11587,3.45445 -0.132361,0.34493 0.184589,0.40551 2.121659,0.40551 1.252498,0 2.277266,-0.0949 2.277266,-0.21083 z m 9.525,-2.04653 V 91.439746 l 3.090588,0.07454 3.090587,0.07454 3.268197,5.948679 c 1.797508,3.271775 3.383304,6.063785 3.523996,6.204485 0.164677,0.16468 0.255799,-1.97796 0.255799,-6.014831 v -6.270625 h 2.910417 2.910416 v 11.782626 11.78263 l -2.94428,-0.0748 -2.944281,-0.0748 -3.471865,-6.30963 -3.471865,-6.30963 -0.07085,6.37578 -0.07085,6.37578 h -3.038004 -3.038004 z m 23.789651,0.0745 3.903287,-11.707809 3.197256,-0.07411 3.197257,-0.07411 3.858358,11.600749 c 2.122096,6.38041 3.858358,11.68227 3.858358,11.78192 0,0.0997 -1.240338,0.18119 -2.756307,0.18119 h -2.756305 l -0.839759,-2.52066 -0.839758,-2.52066 -3.737158,0.0733 -3.73716,0.0733 -0.770223,2.4474 -0.770223,2.4474 H 77.907442 75.05199 Z m 9.283266,1.96193 c 0,-0.39713 -1.895568,-6.256071 -2.090923,-6.462751 -0.17069,-0.180589 -2.14241,5.709711 -2.14241,6.400221 0,0.17788 0.78818,0.28342 2.116666,0.28342 1.164167,0 2.116667,-0.0994 2.116667,-0.22089 z m 9.789583,-2.02807 V 91.456539 l 2.976567,0.0049 2.97656,0.0049 3.175,5.842796 c 1.74625,3.213535 3.32004,6.039085 3.49731,6.278995 0.25664,0.34732 0.32403,-0.84423 0.33073,-5.847653 l 0.008,-6.283855 h 2.91041 2.91042 v 11.773958 11.77396 h -2.87489 -2.87488 l -3.37089,-6.15157 c -1.85398,-3.38336 -3.47731,-6.26467 -3.6074,-6.40291 -0.13938,-0.14813 -0.23652,2.3783 -0.23652,6.15156 v 6.40292 h -2.91042 -2.910417 z m 19.843747,11.57555 c 0,-0.10912 1.73752,-5.41098 3.86115,-11.7819 l 3.86114,-11.583502 3.20895,0.07409 3.20895,0.07409 3.77782,11.502082 c 2.07781,6.32614 3.77783,11.59465 3.77783,11.70781 0,0.11315 -1.23501,0.20574 -2.74447,0.20574 h -2.74447 l -0.77023,-2.4474 -0.77022,-2.4474 -3.73716,-0.0733 -3.73716,-0.0733 -0.83976,2.52066 -0.83975,2.52066 h -2.75631 c -1.51597,0 -2.75631,-0.0893 -2.75631,-0.19841 z m 12.96459,-9.62914 c 0,-0.71235 -1.96245,-6.571074 -2.13868,-6.384828 -0.19791,0.209165 -2.09466,6.064678 -2.09466,6.466488 0,0.12149 0.9525,0.22089 2.11667,0.22089 1.41177,0 2.11667,-0.10076 2.11667,-0.30255 z"
         id="path1075"
         inkscape:connector-curvature="0" />
    </g>
  </g>
</svg>
