<?xml version="1.0" encoding="UTF-8" standalone="no"?>
<!-- Created with Inkscape (http://www.inkscape.org/) -->

<svg
   xmlns:dc="http://purl.org/dc/elements/1.1/"
   xmlns:cc="http://creativecommons.org/ns#"
   xmlns:rdf="http://www.w3.org/1999/02/22-rdf-syntax-ns#"
   xmlns:svg="http://www.w3.org/2000/svg"
   xmlns="http://www.w3.org/2000/svg"
   xmlns:sodipodi="http://sodipodi.sourceforge.net/DTD/sodipodi-0.dtd"
   xmlns:inkscape="http://www.inkscape.org/namespaces/inkscape"
   width="140"
   height="742"
   viewBox="0 0 37.041666 196.32083"
   version="1.1"
   id="svg8"
   inkscape:version="0.92.2 (5c3e80d, 2017-08-06)"
   sodipodi:docname="title_pc140.svg">
  <defs
     id="defs2" />
  <sodipodi:namedview
     id="base"
     pagecolor="#ffffff"
     bordercolor="#666666"
     borderopacity="1.0"
     inkscape:pageopacity="0.0"
     inkscape:pageshadow="2"
     inkscape:zoom="0.7"
     inkscape:cx="89.925606"
     inkscape:cy="497.94879"
     inkscape:document-units="mm"
     inkscape:current-layer="layer1"
     showgrid="false"
     fit-margin-top="0"
     fit-margin-left="0"
     fit-margin-right="0"
     fit-margin-bottom="0"
     showborder="false"
     units="px"
     inkscape:window-width="1366"
     inkscape:window-height="705"
     inkscape:window-x="-8"
     inkscape:window-y="-8"
     inkscape:window-maximized="1" />
  <metadata
     id="metadata5">
    <rdf:RDF>
      <cc:Work
         rdf:about="">
        <dc:format>image/svg+xml</dc:format>
        <dc:type
           rdf:resource="http://purl.org/dc/dcmitype/StillImage" />
        <dc:title></dc:title>
      </cc:Work>
    </rdf:RDF>
  </metadata>
  <g
     inkscape:label="レイヤー 1"
     inkscape:groupmode="layer"
     id="layer1"
     transform="translate(-44.358032,-22.542259)">
    <g
       id="g850"
       transform="translate(-63.342878,-1.3363476)">
      <path
         style="fill:#d6d6d6;stroke-width:0.26458335"
         d="m 107.72322,215.5112 v -4.68823 l 3.57188,-1.14517 3.57187,-1.14516 v -5.6359 -5.63589 l -3.57187,-1.12508 -3.57188,-1.12509 v -4.72218 c 0,-3.66339 0.0742,-4.6961 0.33073,-4.60586 0.1819,0.064 8.39707,2.78257 18.25592,6.04132 l 17.9252,5.925 -0.0658,5.26443 -0.0658,5.26443 -18.19011,6.01081 -18.1901,6.01081 z m 20.03532,-11.06851 4.82177,-1.53655 -4.73203,-1.50411 c -2.60262,-0.82726 -4.80218,-1.50411 -4.88792,-1.50411 -0.0857,0 -0.15589,1.36922 -0.15589,3.04271 0,1.67349 0.0298,3.04179 0.0662,3.04066 0.0364,-0.001 2.23594,-0.6935 4.88792,-1.5386 z m -19.97501,-24.57839 0.072,-4.95236 9.43074,-5.16795 9.43074,-5.16794 -9.49689,-0.0695 -9.49688,-0.0694 v -4.89149 -4.89149 h 18.38854 18.38854 l -0.009,4.96094 -0.009,4.96094 -9.68965,5.29166 -9.68965,5.29167 9.69869,0.0694 9.69868,0.0694 v 4.75924 4.75924 h -18.39438 -18.39438 z m -0.0603,-30.76352 v -4.68823 l 3.57188,-1.14517 3.57187,-1.14516 v -5.6359 -5.63589 l -3.57187,-1.12508 -3.57188,-1.12509 v -4.72218 c 0,-3.66339 0.0742,-4.6961 0.33073,-4.60586 0.1819,0.064 8.39707,2.78257 18.25592,6.04132 l 17.9252,5.925 -0.0658,5.26443 -0.0658,5.26442 -18.19011,6.01082 -18.1901,6.01081 z m 20.03532,-11.06851 4.82177,-1.53655 -4.73203,-1.50411 c -2.60262,-0.82726 -4.80218,-1.50411 -4.88792,-1.50411 -0.0857,0 -0.15589,1.36922 -0.15589,3.04271 0,1.67349 0.0298,3.04179 0.0662,3.04066 0.0364,-0.001 2.23594,-0.6935 4.88792,-1.5386 z m -19.97501,-24.57839 0.072,-4.95236 9.43074,-5.16795 9.43074,-5.167944 -9.49689,-0.06945 -9.49688,-0.06945 v -4.89149 -4.891493 h 18.38854 18.38854 l -0.009,4.960938 -0.009,4.960938 -9.68965,5.291661 -9.68965,5.29167 9.69869,0.0694 9.69868,0.0694 v 4.75924 4.75924 h -18.39438 -18.39438 z m -0.0603,-30.763517 v -4.688237 l 3.57188,-1.145165 3.57187,-1.145164 v -5.635892 -5.63589 l -3.57187,-1.125085 -3.57188,-1.125088 v -4.722178 c 0,-3.663392 0.0742,-4.6961 0.33073,-4.605862 0.1819,0.06398 8.39707,2.782571 18.25592,6.041319 l 17.9252,5.925003 -0.0658,5.264426 -0.0658,5.264425 -18.19011,6.010815 -18.1901,6.010812 z m 20.03532,-11.068514 4.82177,-1.536546 -4.73203,-1.504112 c -2.60262,-0.827259 -4.80218,-1.504108 -4.88792,-1.504108 -0.0857,0 -0.15589,1.369218 -0.15589,3.042708 0,1.67349 0.0298,3.041785 0.0662,3.040655 0.0364,-0.0011 2.23594,-0.693499 4.88792,-1.538597 z M 114.94265,52.420356 c -2.72661,-0.887884 -5.14808,-2.978487 -6.43667,-5.557178 l -0.78276,-1.56645 V 34.623363 23.949997 h 18.52083 18.52084 l -0.002,8.26823 c -0.002,9.016186 -0.14322,10.52047 -1.21458,12.907785 -0.93853,2.091312 -3.43444,4.464544 -5.57917,5.304944 -3.10523,1.216758 -7.56536,0.684824 -10.13136,-1.208313 l -0.89109,-0.657424 -1.40918,1.332749 c -2.12007,2.005127 -3.89301,2.720545 -6.96678,2.811265 -1.60638,0.04741 -2.91594,-0.05685 -3.62849,-0.288877 z m 5.94601,-8.625179 c 1.72844,-1.05384 1.91372,-1.713214 1.91482,-6.81445 l 9.9e-4,-4.564063 h -3.83646 -3.83646 l 4.3e-4,4.431771 c 3.4e-4,3.691198 0.0777,4.585636 0.46302,5.352539 0.98426,1.959044 3.46833,2.707129 5.29367,1.594203 z m 14.04582,-1.478969 c 1.58773,-0.947748 1.75313,-1.473392 1.84539,-5.864648 l 0.0848,-4.034896 h -3.85509 -3.85508 l 4.2e-4,3.638021 c 4.8e-4,4.127504 0.27598,5.045559 1.82466,6.080143 1.07512,0.718227 2.91428,0.802574 3.95494,0.18138 z"
         id="path864"
         inkscape:connector-curvature="0" />
      <path
         style="fill:#b3b3b3;stroke-width:0.26458335"
         d="m 107.72322,215.42074 v -4.58552 l 3.57696,-1.12998 3.57696,-1.12997 -0.0712,-5.70508 -0.0712,-5.70508 -3.43958,-1.08865 -3.43959,-1.08864 -0.0721,-4.66046 -0.0721,-4.66045 8.40651,2.74394 c 4.62358,1.50917 12.81182,4.21517 18.1961,6.01332 l 9.78958,3.26939 0.0717,5.19392 0.0717,5.19393 -18.06338,5.96245 c -9.93486,3.27934 -18.15267,5.96243 -18.26181,5.96242 -0.10914,-1e-5 -0.19844,-2.06351 -0.19844,-4.58554 z m 20.6375,-11.14843 c 2.40109,-0.78192 4.29655,-1.43119 4.21212,-1.44282 -0.0844,-0.0116 -2.218,-0.67599 -4.74129,-1.47636 -2.52328,-0.80036 -4.68662,-1.45521 -4.80743,-1.45521 -0.12081,0 -0.21965,1.37149 -0.21965,3.04775 0,3.0286 0.004,3.04681 0.59531,2.89803 0.32742,-0.0824 2.55985,-0.78947 4.96094,-1.57139 z m -20.57719,-24.37346 0.072,-4.91783 9.46865,-5.20249 9.46865,-5.20248 -9.5348,-0.0695 -9.53479,-0.0694 v -4.7592 -4.7592 h 18.39451 18.39451 l -0.0721,4.80839 -0.0721,4.80838 -9.68563,5.31193 -9.68564,5.31193 9.75178,0.0694 9.75178,0.0694 v 4.75928 4.75928 h -18.39438 -18.39438 z m -0.0603,-30.88853 v -4.58552 l 3.57696,-1.12998 3.57696,-1.12997 -0.0712,-5.70508 -0.0712,-5.70508 -3.43958,-1.08865 -3.43959,-1.08864 -0.0721,-4.66046 -0.0721,-4.66045 8.40651,2.74394 c 4.62358,1.50917 12.81182,4.21517 18.1961,6.01332 l 9.78958,3.26939 0.0717,5.19392 0.0717,5.19393 -18.06338,5.96245 c -9.93486,3.27934 -18.15267,5.96243 -18.26181,5.96242 -0.10914,-10e-6 -0.19844,-2.06351 -0.19844,-4.58554 z m 20.6375,-11.14843 c 2.40109,-0.78192 4.29655,-1.43119 4.21212,-1.44282 -0.0844,-0.0116 -2.218,-0.67599 -4.74129,-1.47636 -2.52328,-0.80036 -4.68662,-1.45521 -4.80743,-1.45521 -0.12081,0 -0.21965,1.37149 -0.21965,3.04775 0,3.0286 0.004,3.04681 0.59531,2.89803 0.32742,-0.0823 2.55985,-0.78947 4.96094,-1.57139 z m -20.57719,-24.37346 0.072,-4.91783 9.46865,-5.20249 9.46865,-5.202484 -9.5348,-0.06945 -9.53479,-0.06945 v -4.759198 -4.759201 h 18.39451 18.39451 l -0.0721,4.808381 -0.0721,4.808382 -9.68563,5.31193 -9.68564,5.31193 9.75178,0.0694 9.75178,0.0694 v 4.75928 4.75928 H 126.10598 107.7116 Z m -0.0603,-30.888534 v -4.58552 l 3.57696,-1.129975 3.57696,-1.129972 -0.0712,-5.705081 -0.0712,-5.705081 -3.43958,-1.088644 -3.43959,-1.088646 -0.0721,-4.660456 -0.0721,-4.660453 8.40651,2.743943 c 4.62358,1.509168 12.81182,4.215165 18.1961,6.013324 l 9.78958,3.269382 0.0717,5.193927 0.0717,5.19393 -18.06338,5.962444 c -9.93486,3.279346 -18.15267,5.962436 -18.26181,5.962423 -0.10914,-1.4e-5 -0.19844,-2.06351 -0.19844,-4.585545 z m 20.6375,-11.148431 c 2.40109,-0.781917 4.29655,-1.431186 4.21212,-1.442818 -0.0844,-0.01163 -2.218,-0.675991 -4.74129,-1.476356 -2.52328,-0.800365 -4.68662,-1.455208 -4.80743,-1.455208 -0.12081,0 -0.21965,1.371486 -0.21965,3.047748 0,3.028604 0.004,3.04681 0.59531,2.898029 0.32742,-0.08235 2.55985,-0.789474 4.96094,-1.571395 z M 114.66153,52.26812 c -0.76784,-0.276302 -1.80445,-0.754767 -2.30359,-1.06325 -1.25242,-0.774041 -3.1463,-2.937761 -3.88599,-4.439681 -0.61078,-1.240152 -0.61712,-1.350684 -0.6911,-12.033421 l -0.0747,-10.781771 h 18.40924 18.40923 l -0.0783,9.723438 -0.0783,9.723438 -0.7091,1.512905 c -2.77681,5.924498 -10.72546,8.116365 -15.69304,4.327408 -0.49102,-0.374516 -0.96387,-0.680938 -1.05079,-0.680938 -0.0869,0 -0.51487,0.406418 -0.951,0.903152 -2.53525,2.887484 -7.59175,4.144043 -11.30255,2.80872 z m 6.27454,-8.428669 c 1.64781,-0.88373 1.8684,-1.693008 1.8684,-6.854596 v -4.568191 h -3.83646 -3.83646 l 9.8e-4,4.564063 c 8.8e-4,4.087471 0.0559,4.654108 0.52675,5.426377 1.0976,1.800208 3.41696,2.429782 5.27678,1.432347 z m 14.22483,-1.622492 c 1.45468,-0.886973 1.66649,-1.64329 1.66649,-5.950697 v -3.849598 h -3.85509 -3.85508 l 0.0848,4.120703 0.0848,4.120704 1.11424,1.038672 c 1.00579,0.937587 1.25041,1.038575 2.51354,1.037683 0.92074,-6.62e-4 1.689,-0.177627 2.24636,-0.517467 z"
         id="path862"
         inkscape:connector-curvature="0" />
      <path
         style="fill:#8f8f8f;stroke-width:0.26458335"
         d="m 107.72322,215.43842 v -4.56784 l 3.57702,-1.12671 3.57702,-1.1267 -0.0713,-5.74096 -0.0713,-5.74096 -3.43958,-1.08865 -3.43959,-1.08864 -0.0721,-4.64149 -0.0721,-4.6415 18.19608,6.02144 18.19608,6.02144 0.0717,5.16737 0.0717,5.16738 -18.10687,5.97683 c -9.95878,3.28726 -18.17658,5.97683 -18.26177,5.97683 -0.0852,0 -0.15489,-2.05553 -0.15489,-4.56784 z m 20.37292,-11.01681 4.63021,-1.52035 -4.7184,-1.51843 c -2.59512,-0.83514 -4.88708,-1.58316 -5.09323,-1.66227 -0.31067,-0.11921 -0.37483,0.40452 -0.37483,3.05947 0,2.88226 0.0464,3.20124 0.46302,3.18262 0.25466,-0.0114 2.54661,-0.70484 5.09323,-1.54104 z m -20.37292,-24.47419 v -4.86925 l 9.57933,-5.25106 9.57932,-5.25106 -9.57932,-0.0695 -9.57933,-0.0694 v -4.7592 -4.7592 h 18.39451 18.39451 l -0.0721,4.79198 -0.0721,4.79197 -9.71468,5.32834 -9.71469,5.32834 9.78083,0.0694 9.78083,0.0694 v 4.75928 4.75928 h -18.38854 -18.38854 z m 0,-30.91942 v -4.56784 l 3.57702,-1.12671 3.57702,-1.1267 -0.0713,-5.74096 -0.0713,-5.74096 -3.43958,-1.08865 -3.43959,-1.08864 -0.0721,-4.64149 -0.0721,-4.6415 18.19608,6.02144 18.19608,6.02144 0.0717,5.16737 0.0717,5.16738 -18.10687,5.97683 c -9.95878,3.28726 -18.17658,5.97683 -18.26177,5.97683 -0.0852,0 -0.15489,-2.05553 -0.15489,-4.56784 z m 20.37292,-11.01681 4.63021,-1.52035 -4.7184,-1.51843 c -2.59512,-0.83514 -4.88708,-1.58316 -5.09323,-1.66227 -0.31067,-0.11921 -0.37483,0.40452 -0.37483,3.05947 0,2.88226 0.0464,3.20124 0.46302,3.18262 0.25466,-0.0114 2.54661,-0.70484 5.09323,-1.54104 z M 107.72322,113.537 v -4.86925 l 9.57933,-5.25106 9.57932,-5.251064 -9.57932,-0.06945 -9.57933,-0.06945 v -4.759198 -4.759201 h 18.39451 18.39451 l -0.0721,4.791972 -0.0721,4.791969 -9.71468,5.328342 -9.71469,5.32834 9.78083,0.0694 9.78083,0.0694 v 4.75928 4.75928 h -18.38854 -18.38854 z m 0,-30.919421 V 78.04974 l 3.57702,-1.126707 3.57702,-1.126704 -0.0713,-5.740961 -0.0713,-5.740959 -3.43958,-1.088647 -3.43959,-1.088644 -0.0721,-4.64149 -0.0721,-4.641493 18.19608,6.021438 18.19608,6.021435 0.0717,5.167377 0.0717,5.167376 -18.10687,5.976827 c -9.95878,3.287257 -18.17658,5.976829 -18.26177,5.976829 -0.0852,0 -0.15489,-2.055527 -0.15489,-4.567838 z m 20.37292,-11.016807 4.63021,-1.520354 -4.7184,-1.51843 c -2.59512,-0.835139 -4.88708,-1.583159 -5.09323,-1.662269 -0.31067,-0.119213 -0.37483,0.404524 -0.37483,3.059473 0,2.882259 0.0464,3.201233 0.46302,3.182622 0.25466,-0.01138 2.54661,-0.704847 5.09323,-1.541042 z M 114.84288,52.303063 c -2.85191,-0.941821 -5.02665,-2.89539 -6.35949,-5.712734 l -0.75975,-1.605956 -2.1e-4,-10.517188 -2.1e-4,-10.517188 h 18.40072 18.40072 l -0.0783,9.723438 -0.0783,9.723438 -0.77749,1.5875 c -2.08418,4.255495 -6.8464,6.753654 -11.32595,5.941357 -1.68244,-0.305086 -4.34741,-1.496438 -4.93726,-2.207163 -0.29781,-0.358832 -0.50147,-0.244555 -1.63113,0.915224 -1.91778,1.968904 -4.24945,2.976911 -7.12047,3.078255 -1.65367,0.05837 -2.6473,-0.05049 -3.73283,-0.408983 z m 6.2951,-8.498604 c 1.50402,-0.917056 1.66649,-1.574581 1.66649,-6.744447 v -4.643348 h -3.83646 -3.83646 v 4.511056 c 0,4.796574 0.12182,5.377262 1.36393,6.501622 0.80288,0.726776 1.16397,0.847614 2.60482,0.871696 0.74509,0.01245 1.5076,-0.173371 2.03768,-0.496579 z m 13.50113,-1.324055 c 1.92082,-0.871953 2.18614,-1.619287 2.18729,-6.161136 l 9.9e-4,-3.902604 h -3.83646 -3.83646 v 3.730327 c 0,4.091127 0.26374,5.121955 1.52128,5.945928 1.48382,0.972234 2.46409,1.068073 3.96336,0.387485 z"
         id="path860"
         inkscape:connector-curvature="0" />
      <path
         style="fill:#6f6f6f;stroke-width:0.26458335"
         d="m 107.78303,215.47648 0.0725,-4.56946 3.43959,-1.1224 3.43958,-1.12241 0.0711,-5.78185 0.0711,-5.78184 -3.51065,-1.07921 -3.51064,-1.07922 -0.0722,-4.64526 -0.0722,-4.64527 18.26228,6.08813 18.26227,6.08813 v 5.13709 c 0,2.82541 -0.0588,5.1371 -0.13072,5.1371 -0.0719,0 -8.01931,2.60337 -17.66093,5.78528 -9.64163,3.18191 -17.80097,5.86974 -18.13187,5.97297 l -0.60165,0.18768 z m 22.75814,-11.79182 c 1.27201,-0.38756 2.28025,-0.73715 2.24053,-0.77687 -0.0397,-0.0397 -2.15201,-0.73415 -4.69399,-1.54319 -2.54198,-0.80904 -4.83014,-1.53757 -5.0848,-1.61895 -0.42414,-0.13554 -0.46302,0.12925 -0.46302,3.1532 v 3.30117 l 2.84427,-0.90535 c 1.56435,-0.49795 3.885,-1.22246 5.15701,-1.61001 z m -22.81795,-23.7185 v -4.85052 l 9.72344,-5.33503 9.72344,-5.33503 -9.72344,-9.1e-4 -9.72344,-9.2e-4 v -4.7625 -4.7625 h 18.39451 18.39451 l -0.0721,4.77589 -0.0721,4.77589 -9.7509,5.34442 -9.75091,5.34443 9.81705,0.0694 9.81705,0.0694 v 4.75928 4.75928 h -18.38854 -18.38854 z m 0.0598,-30.9001 0.0725,-4.56946 3.43959,-1.1224 3.43958,-1.12241 0.0711,-5.78185 0.0711,-5.78184 -3.51065,-1.07921 -3.51064,-1.07922 -0.0722,-4.64526 -0.0722,-4.64527 18.26228,6.08813 18.26227,6.08813 v 5.13709 c 0,2.82541 -0.0588,5.1371 -0.13072,5.1371 -0.0719,0 -8.01931,2.60337 -17.66093,5.78528 -9.64163,3.18191 -17.80097,5.86974 -18.13187,5.97297 l -0.60165,0.18768 z m 22.75814,-11.79182 c 1.27201,-0.38756 2.28025,-0.73715 2.24053,-0.77687 -0.0397,-0.0397 -2.15201,-0.73415 -4.69399,-1.54319 -2.54198,-0.80904 -4.83014,-1.53757 -5.0848,-1.61895 -0.42414,-0.13554 -0.46302,0.12925 -0.46302,3.1532 v 3.30117 l 2.84427,-0.90535 c 1.56435,-0.49795 3.885,-1.22246 5.15701,-1.61001 z m -22.81795,-23.7185 v -4.85052 l 9.72344,-5.33503 9.72344,-5.335028 -9.72344,-9.15e-4 -9.72344,-9.13e-4 v -4.7625 -4.7625 h 18.39451 18.39451 l -0.0721,4.775888 -0.0721,4.775888 -9.7509,5.34442 -9.75091,5.34443 9.81705,0.0694 9.81705,0.0694 v 4.75928 4.75928 h -18.38854 -18.38854 z m 0.0598,-30.900101 0.0725,-4.56946 3.43959,-1.122403 3.43958,-1.122405 0.0711,-5.781847 0.0711,-5.781847 -3.51065,-1.079212 -3.51064,-1.079214 -0.0722,-4.645266 -0.0722,-4.645266 18.26228,6.088132 18.26227,6.088131 v 5.137092 c 0,2.825401 -0.0588,5.137092 -0.13072,5.137092 -0.0719,0 -8.01931,2.603379 -17.66093,5.785284 -9.64163,3.181909 -17.80097,5.869742 -18.13187,5.972967 l -0.60165,0.187679 z m 22.75814,-11.791821 c 1.27201,-0.387559 2.28025,-0.737148 2.24053,-0.776864 -0.0397,-0.03972 -2.15201,-0.734153 -4.69399,-1.543193 -2.54198,-0.809041 -4.83014,-1.537568 -5.0848,-1.618951 -0.42414,-0.135544 -0.46302,0.129248 -0.46302,3.153201 v 3.301172 l 2.84427,-0.905357 c 1.56435,-0.497948 3.885,-1.222452 5.15701,-1.610008 z M 115.5935,52.502332 c -2.72543,-0.642335 -5.60294,-2.933814 -6.9884,-5.565151 l -0.74959,-1.423641 -0.0773,-10.781772 -0.0773,-10.781771 h 18.41202 18.41202 l -0.0785,9.591146 -0.0785,9.591147 -0.73478,1.569014 c -1.93762,4.137465 -5.24091,6.260152 -9.74128,6.259732 -2.26511,-2.12e-4 -4.29578,-0.626233 -5.96714,-1.83957 l -1.0193,-0.739963 -1.07636,1.106356 c -2.63008,2.703365 -6.59773,3.871866 -10.23565,3.014473 z m 5.54448,-8.697873 c 1.50402,-0.917056 1.66649,-1.574581 1.66649,-6.744447 v -4.643348 h -3.83646 -3.83646 v 4.568191 c 0,5.063541 0.18676,5.803288 1.7198,6.812197 1.06165,0.698685 3.14699,0.702288 4.28663,0.0074 z m 14.04839,-1.493668 c 1.40453,-0.919216 1.63896,-1.775651 1.64003,-5.991523 l 9.9e-4,-3.902604 h -3.83646 -3.83646 v 3.871375 c 0,3.502142 0.0544,3.959345 0.57006,4.793742 1.08247,1.751483 3.7473,2.351117 5.46184,1.22901 z"
         id="path858"
         inkscape:connector-curvature="0" />
      <path
         style="fill:#585858;stroke-width:0.26458335"
         d="m 107.78312,215.45149 0.0724,-4.55476 3.43959,-1.08199 3.43958,-1.08198 0.0711,-5.81793 0.0711,-5.81793 -3.57679,-1.11796 -3.57679,-1.11796 v -4.49299 c 0,-2.47114 0.0845,-4.49298 0.18785,-4.49298 0.10331,0 8.32118,2.68323 18.26193,5.96275 l 18.07408,5.96275 -0.0718,5.0836 -0.0718,5.0836 -17.99167,5.99532 c -9.89541,3.29743 -18.08377,6.0061 -18.19635,6.01927 -0.11258,0.0132 -0.17211,-2.02569 -0.13229,-4.53081 z m 20.31991,-10.96913 c 2.60975,-0.82953 4.70275,-1.55048 4.65112,-1.60212 -0.0881,-0.0881 -9.94104,-3.2469 -10.12777,-3.2469 -0.0476,0 -0.0865,1.50102 -0.0865,3.3356 0,2.90048 0.0534,3.31512 0.40907,3.17862 0.22499,-0.0863 2.54432,-0.83568 5.15407,-1.6652 z m -20.37981,-24.50383 v -4.83814 l 9.6385,-5.28217 9.6385,-5.28217 -9.6385,-0.0694 -9.6385,-0.0694 v -4.75924 -4.75924 h 18.38854 18.38854 v 4.72767 4.72767 l -9.84702,5.39265 -9.84702,5.39264 9.84702,0.0694 9.84702,0.0694 v 4.75928 4.75928 h -18.38854 -18.38854 z m 0.0599,-30.93746 0.0724,-4.55476 3.43959,-1.08199 3.43958,-1.08198 0.0711,-5.81793 0.0711,-5.81793 -3.57679,-1.11796 -3.57679,-1.11796 v -4.49299 c 0,-2.47114 0.0845,-4.49298 0.18785,-4.49298 0.10331,0 8.32118,2.68323 18.26193,5.96275 l 18.07408,5.96275 -0.0718,5.0836 -0.0718,5.0836 -17.99167,5.99532 c -9.89541,3.29743 -18.08377,6.0061 -18.19635,6.01927 -0.11258,0.0132 -0.17211,-2.02569 -0.13229,-4.53081 z m 20.31991,-10.96913 c 2.60975,-0.82953 4.70275,-1.55048 4.65112,-1.60212 -0.0881,-0.0881 -9.94104,-3.2469 -10.12777,-3.2469 -0.0476,0 -0.0865,1.50102 -0.0865,3.3356 0,2.90048 0.0534,3.31512 0.40907,3.17862 0.22499,-0.0863 2.54432,-0.83568 5.15407,-1.6652 z m -20.37981,-24.50383 v -4.83814 l 9.6385,-5.28217 9.6385,-5.282174 -9.6385,-0.06941 -9.6385,-0.06941 v -4.759241 -4.75924 h 18.38854 18.38854 v 4.72767 4.727671 l -9.84702,5.392644 -9.84702,5.39264 9.84702,0.0694 9.84702,0.0694 v 4.75928 4.75928 h -18.38854 -18.38854 z m 0.0599,-30.937458 0.0724,-4.554766 3.43959,-1.081984 3.43958,-1.081985 0.0711,-5.817926 0.0711,-5.817928 -3.57679,-1.11796 -3.57679,-1.117962 v -4.492988 c 0,-2.471142 0.0845,-4.492988 0.18785,-4.492988 0.10331,0 8.32118,2.683238 18.26193,5.962751 l 18.07408,5.962753 -0.0718,5.083602 -0.0718,5.083604 -17.99167,5.995318 c -9.89541,3.297423 -18.08377,6.006095 -18.19635,6.019271 -0.11258,0.01318 -0.17211,-2.025692 -0.13229,-4.530812 z m 20.31991,-10.969136 c 2.60975,-0.82953 4.70275,-1.55048 4.65112,-1.602116 -0.0881,-0.08811 -9.94104,-3.246901 -10.12777,-3.246901 -0.0476,0 -0.0865,1.501019 -0.0865,3.3356 0,2.900479 0.0534,3.315121 0.40907,3.178622 0.22499,-0.08634 2.54432,-0.835678 5.15407,-1.665205 z M 114.9601,52.261553 c -3.12775,-1.024718 -5.59606,-3.340477 -6.7096,-6.294918 -0.49369,-1.309873 -0.52728,-2.055653 -0.52728,-11.707813 V 23.949997 h 18.40364 18.40363 l -0.0812,9.591146 -0.0812,9.591147 -0.72337,1.54408 c -0.97914,2.090048 -2.05934,3.393188 -3.71231,4.478501 -1.91094,1.254694 -3.65298,1.782627 -5.88218,1.782627 -2.32411,0 -4.18598,-0.52999 -5.88976,-1.676552 l -1.29931,-0.874375 -1.60953,1.512842 c -1.9566,1.839066 -3.85415,2.63039 -6.68041,2.785889 -1.50242,0.08266 -2.37946,-0.02027 -3.61104,-0.423749 z m 6.07013,-8.380224 c 0.40662,-0.20782 0.97172,-0.759027 1.25579,-1.224905 0.46091,-0.755933 0.51658,-1.352243 0.51746,-5.543405 l 9.9e-4,-4.696355 h -3.83646 -3.83646 v 4.701081 c 0,4.596339 0.0149,4.723083 0.671,5.688542 0.36905,0.543104 0.69647,0.989254 0.7276,0.991445 0.0311,0.0022 0.53286,0.176937 1.11495,0.388324 1.12368,0.408073 2.17579,0.313362 3.38513,-0.304727 z m 14.1704,-1.605906 c 1.61201,-1.203537 1.74853,-1.638869 1.85265,-5.907553 l 0.0964,-3.951206 h -3.99759 -3.99759 l 9.8e-4,3.902604 c 8.7e-4,3.446761 0.0633,4.004842 0.53463,4.777884 1.0704,1.755651 3.92086,2.365141 5.51054,1.178271 z"
         id="path856"
         inkscape:connector-curvature="0" />
      <path
         style="fill:#303030;stroke-width:0.26458335"
         d="m 107.78299,215.50851 0.0725,-4.55926 3.64315,-1.17151 3.64315,-1.17151 -0.0713,-5.73495 -0.0713,-5.73495 -3.63802,-1.16241 -3.63802,-1.16241 v -4.46825 c 0,-2.45754 0.0893,-4.46638 0.19844,-4.46409 0.10914,0.002 8.23515,2.67187 18.05781,5.93239 l 17.85938,5.92823 0.0717,5.15299 0.0716,5.15298 -17.71958,5.85127 c -9.74577,3.2182 -17.9069,5.92315 -18.13584,6.01101 -0.37038,0.14212 -0.40827,-0.34282 -0.34373,-4.39953 z m 20.44544,-11.06569 4.7625,-1.54446 -5.05784,-1.63251 c -2.7818,-0.89788 -5.13329,-1.63251 -5.22552,-1.63251 -0.0922,0 -0.16768,1.4963 -0.16768,3.32512 0,3.04683 0.0387,3.31272 0.46302,3.17697 0.25466,-0.0815 2.60614,-0.84316 5.22552,-1.69261 z m -20.50222,-24.58709 0.003,-4.69635 9.66175,-5.29167 9.66175,-5.29166 -9.66474,-0.0694 -9.66475,-0.0694 v -4.75924 -4.75924 h 18.38854 18.38854 v 4.70506 4.70506 l -9.85572,5.41526 -9.85573,5.41525 9.85573,0.0694 9.85572,0.0694 v 4.62699 4.62699 h -18.38854 -18.38854 z m 0.0568,-30.75764 0.0725,-4.55926 3.64315,-1.17151 3.64315,-1.17151 -0.0713,-5.73495 -0.0713,-5.73495 -3.63802,-1.16241 -3.63802,-1.16241 v -4.46825 c 0,-2.45754 0.0893,-4.46638 0.19844,-4.46409 0.10914,0.002 8.23515,2.67187 18.05781,5.93239 l 17.85938,5.92823 0.0717,5.15299 0.0716,5.15298 -17.71958,5.85127 c -9.74577,3.2182 -17.9069,5.92315 -18.13584,6.01101 -0.37038,0.14212 -0.40827,-0.34282 -0.34373,-4.39953 z m 20.44544,-11.06569 4.7625,-1.54446 -5.05784,-1.63251 c -2.7818,-0.89788 -5.13329,-1.63251 -5.22552,-1.63251 -0.0922,0 -0.16768,1.4963 -0.16768,3.32512 0,3.04683 0.0387,3.31272 0.46302,3.17697 0.25466,-0.0815 2.60614,-0.84316 5.22552,-1.69261 z m -20.50222,-24.58709 0.003,-4.69635 9.66175,-5.29167 9.66175,-5.291664 -9.66474,-0.06941 -9.66475,-0.06941 v -4.759241 -4.75924 h 18.38854 18.38854 v 4.705059 4.705056 l -9.85572,5.41526 -9.85573,5.41525 9.85573,0.0694 9.85572,0.0694 v 4.62699 4.62699 h -18.38854 -18.38854 z m 0.0568,-30.757638 0.0725,-4.559258 3.64315,-1.171511 3.64315,-1.171512 -0.0713,-5.734953 -0.0713,-5.734949 -3.63802,-1.162413 -3.63802,-1.16241 v -4.468249 c 0,-2.45754 0.0893,-4.466379 0.19844,-4.464087 0.10914,0.0024 8.23515,2.671866 18.05781,5.932392 l 17.85938,5.928231 0.0717,5.152985 0.0716,5.152986 -17.71958,5.851269 c -9.74577,3.218198 -17.9069,5.92315 -18.13584,6.011003 -0.37038,0.142126 -0.40827,-0.342813 -0.34373,-4.399524 z m 20.44544,-11.065696 4.7625,-1.54446 -5.05784,-1.632508 c -2.7818,-0.89788 -5.13329,-1.632509 -5.22552,-1.632509 -0.0922,0 -0.16768,1.496304 -0.16768,3.325122 0,3.046834 0.0387,3.312721 0.46302,3.176969 0.25466,-0.08149 2.60614,-0.843161 5.22552,-1.692614 z M 115.40255,52.365431 c -2.93334,-0.78826 -5.46273,-2.871406 -6.80438,-5.603912 l -0.74266,-1.512563 -0.0747,-10.649479 -0.0747,-10.64948 h 18.39715 18.39714 v 8.967964 c 0,8.182524 -0.0458,9.116132 -0.52252,10.659717 -1.34882,4.366942 -4.89417,7.084842 -9.53164,7.307044 -2.57487,0.123372 -4.42236,-0.382037 -6.4196,-1.756172 l -1.1714,-0.805943 -1.25846,1.277673 c -2.65691,2.697478 -6.53323,3.748925 -10.19413,2.765151 z m 5.79807,-8.529245 c 0.35481,-0.259605 0.89059,-0.800485 1.19063,-1.201956 0.50419,-0.674651 0.54551,-1.094309 0.54551,-5.539902 v -4.809956 l -3.9026,-0.07322 -3.90261,-0.07322 9.8e-4,4.835719 c 9e-4,4.382522 0.051,4.917749 0.53464,5.710998 1.07105,1.756735 3.90131,2.345724 5.53344,1.151534 z m 13.987,-1.551047 c 1.66138,-1.240399 1.77206,-1.614187 1.77206,-5.984549 v -4.016218 l -3.9026,-0.07322 -3.90261,-0.07322 v 4.149286 c 0,4.072601 0.0129,4.166142 0.69562,5.061294 0.38259,0.501604 1.0672,1.080216 1.52136,1.285805 1.0607,0.480167 2.93506,0.308662 3.81617,-0.349181 z"
         id="path854"
         inkscape:connector-curvature="0" />
      <path
         style="fill:#000000;stroke-width:0.26458335"
         d="m 107.72322,215.48486 v -4.45883 l 3.63802,-1.15642 3.63802,-1.15641 0.0711,-5.81058 0.0711,-5.81059 -3.70909,-1.15196 -3.70909,-1.15196 v -4.47438 -4.47439 l 0.59531,0.18825 c 0.32742,0.10352 8.48321,2.79414 18.12396,5.97913 l 17.52865,5.7909 v 5.09266 5.09266 l -3.50573,1.16405 c -1.92815,0.64024 -10.08393,3.33141 -18.12396,5.98038 l -14.61823,4.81631 z m 20.59704,-11.01004 c 2.52436,-0.801 4.48889,-1.54793 4.36562,-1.65984 -0.21906,-0.19888 -9.55529,-3.18654 -9.94756,-3.18329 -0.10914,8e-4 -0.19843,1.49795 -0.19843,3.32677 0,3.32409 1.8e-4,3.32507 0.59531,3.14893 0.32742,-0.0969 2.6607,-0.83156 5.18506,-1.63257 z m -20.537,-24.61909 0.0722,-4.69635 9.49416,-5.20791 c 5.22179,-2.86435 9.62115,-5.3349 9.77636,-5.49011 0.19987,-0.19986 -2.58918,-0.28219 -9.56031,-0.28219 h -9.8425 v -4.63021 -4.63021 h 18.38854 18.38854 l -0.006,4.69636 -0.006,4.69635 -9.90854,5.42396 -9.90854,5.42396 9.91476,0.0693 9.91477,0.0693 v 4.62703 4.62703 H 126.10605 107.7114 l 0.0722,-4.69636 z m -0.06,-30.78129 v -4.45883 l 3.63802,-1.15642 3.63802,-1.15641 0.0711,-5.81058 0.0711,-5.81059 -3.70909,-1.15196 -3.70909,-1.15196 v -4.47438 -4.47439 l 0.59531,0.18825 c 0.32742,0.10352 8.48321,2.79414 18.12396,5.97913 l 17.52865,5.7909 v 5.09266 5.09266 l -3.50573,1.16405 c -1.92815,0.64024 -10.08393,3.33141 -18.12396,5.98038 l -14.61823,4.81631 z M 128.3203,138.0644 c 2.52436,-0.801 4.48889,-1.54793 4.36562,-1.65984 -0.21906,-0.19888 -9.55529,-3.18654 -9.94756,-3.18329 -0.10914,8e-4 -0.19843,1.49795 -0.19843,3.32677 0,3.32409 1.8e-4,3.32507 0.59531,3.14893 0.32742,-0.0969 2.6607,-0.83156 5.18506,-1.63257 z m -20.537,-24.61909 0.0722,-4.69635 9.49416,-5.20791 c 5.22179,-2.86435 9.62115,-5.334901 9.77636,-5.490105 0.19987,-0.199869 -2.58918,-0.282194 -9.56031,-0.282194 h -9.8425 v -4.630209 -4.630208 h 18.38854 18.38854 l -0.006,4.696354 -0.006,4.696354 -9.90854,5.423958 -9.90854,5.42396 9.91476,0.0693 9.91477,0.0693 v 4.62703 4.62703 h -18.39465 -18.39465 l 0.0722,-4.69636 z m -0.06,-30.781292 v -4.458824 l 3.63802,-1.15642 3.63802,-1.156417 0.0711,-5.810581 0.0711,-5.810581 -3.70909,-1.151962 -3.70909,-1.151961 v -4.474383 -4.474384 l 0.59531,0.18824 c 0.32742,0.103529 8.48321,2.79414 18.12396,5.979134 l 17.52865,5.790899 v 5.09266 5.092661 l -3.50573,1.164055 c -1.92815,0.640231 -10.08393,3.331401 -18.12396,5.980372 l -14.61823,4.816317 z m 20.59704,-11.010035 c 2.52436,-0.801005 4.48889,-1.547934 4.36562,-1.659843 -0.21906,-0.198879 -9.55529,-3.186536 -9.94756,-3.183287 -0.10914,7.94e-4 -0.19843,1.49795 -0.19843,3.326768 0,3.324091 1.8e-4,3.325067 0.59531,3.148926 0.32742,-0.09691 2.6607,-0.831562 5.18506,-1.632564 z M 115.9253,52.427793 c -3.11303,-0.679079 -5.98322,-2.991594 -7.36069,-5.930515 l -0.7091,-1.512905 -0.0748,-10.517188 -0.0748,-10.517188 h 18.39724 18.39724 v 8.562846 c 0,4.709565 -0.11635,9.176369 -0.25856,9.926231 -0.40837,2.153346 -1.5383,4.156971 -3.22488,5.718442 -2.13879,1.980142 -3.87248,2.624095 -7.09989,2.637136 -2.68523,0.01085 -3.96564,-0.380613 -6.128,-1.873541 l -0.96862,-0.668752 -1.11561,1.210296 c -1.28155,1.390312 -3.70499,2.673567 -5.78065,3.060946 -1.72339,0.321636 -2.12978,0.311899 -3.99879,-0.09581 z m 5.2394,-8.555154 c 1.69082,-1.262375 1.76475,-1.535489 1.85464,-6.851236 l 0.0826,-4.883282 -4.05134,0.07313 -4.05133,0.07312 -0.08,3.836459 c -0.044,2.110052 -0.007,4.341908 0.0822,4.95968 0.1861,1.289174 1.17926,2.611158 2.36593,3.149242 1.04172,0.472356 2.92334,0.295402 3.79731,-0.357114 z M 134.97943,42.5174 c 0.57279,-0.29984 1.14736,-0.92225 1.51723,-1.643563 0.53556,-1.044445 0.59531,-1.541073 0.59531,-4.948252 v -3.787287 l -4.03489,0.07304 -4.0349,0.07304 v 4.015819 c 0,3.660312 0.049,4.081921 0.55349,4.762501 1.38294,1.865627 3.51985,2.440889 5.40376,1.454708 z"
         id="path852"
         inkscape:connector-curvature="0" />
    </g>
  </g>
</svg>
